<?xml version="1.0" encoding="UTF-8" standalone="no"?>
<!-- Created with Inkscape (http://www.inkscape.org/) -->

<svg
   width="210mm"
   height="297mm"
   viewBox="0 0 210 297"
   version="1.1"
   id="svg928"
   inkscape:version="1.2.1 (9c6d41e410, 2022-07-14)"
   sodipodi:docname="strat-sss-11h_freecad_bottom.svg"
   xmlns:inkscape="http://www.inkscape.org/namespaces/inkscape"
   xmlns:sodipodi="http://sodipodi.sourceforge.net/DTD/sodipodi-0.dtd"
   xmlns="http://www.w3.org/2000/svg"
   xmlns:svg="http://www.w3.org/2000/svg">
  <sodipodi:namedview
     id="namedview930"
     pagecolor="#505050"
     bordercolor="#ffffff"
     borderopacity="1"
     inkscape:showpageshadow="0"
     inkscape:pageopacity="0"
     inkscape:pagecheckerboard="1"
     inkscape:deskcolor="#505050"
     inkscape:document-units="mm"
     showgrid="false"
     inkscape:zoom="2"
     inkscape:cx="-183"
     inkscape:cy="73"
     inkscape:current-layer="layer1" />
  <defs
     id="defs925" />
  <g
     inkscape:label="Layer 1"
     inkscape:groupmode="layer"
     id="layer1"
     transform="rotate(-90,30.94268,-14.478255)">
    <g
       id="g1124"
       inkscape:label="bottom"
       style="display:inline">
      <path
         id="path1122"
         style="display:inline;fill:none;stroke:#000000;stroke-width:0.0264583;stroke-linecap:round;stroke-dasharray:none;stroke-opacity:1"
         inkscape:label="contour"
         d="M 27.448767 -128.00556 C 26.668608 -128.27952 25.889673 -128.55414 25.121261 -128.83238 C 21.900839 -129.99848 18.783831 -131.19506 15.531149 -132.49314 C 10.915111 -134.3353 6.0261499 -136.3819 1.210059 -138.08866 C -1.8410854 -139.16996 -4.8628953 -140.115 -7.9811113 -140.96807 C -11.11331 -141.82498 -14.342827 -142.58914 -17.4472 -143.09869 C -20.762277 -143.64282 -23.934798 -143.89628 -27.358223 -143.93068 C -32.892725 -143.98628 -39.083111 -143.46844 -44.333414 -142.24345 C -47.258627 -141.56095 -49.89213 -140.65896 -52.586141 -139.43122 C -56.07663 -137.84049 -59.668921 -135.70285 -62.590181 -132.90655 C -65.079694 -130.52352 -67.082055 -127.66237 -68.377942 -124.5143 C -69.195759 -122.5276 -69.732305 -120.42666 -69.916349 -118.29866 C -70.119309 -115.95201 -69.893371 -113.70361 -69.893611 -111.36833 L -60.022896 -111.36781 C -58.516238 -111.36779 -57.296492 -110.1478 -57.296447 -108.64292 L -57.296447 -49.142155 C -57.296487 -47.637344 -58.516586 -46.417762 -60.021346 -46.417773 L -67.61158 -46.417773 C -68.282756 -46.416804 -68.952938 -46.41599 -69.62231 -46.41519 C -69.622282 -40.663023 -69.689036 -35.411173 -70.06156 -30.604268 C -70.546616 -24.345188 -71.550561 -18.840361 -72.965258 -14.416626 C -74.377709 -9.9999142 -76.199445 -6.6607104 -78.293099 -3.4679402 C -81.945539 2.1019444 -86.424739 7.2266754 -90.656685 11.988481 C -94.644156 16.475203 -98.412433 20.639706 -103.19442 27.635588 C -104.51808 29.572045 -105.91943 31.725543 -106.39836 34.112712 C -106.76469 35.938674 -106.59118 37.901472 -106.11362 39.620903 C -105.48679 41.877812 -104.33606 43.71539 -102.89625 45.098604 C -94.810233 52.866804 -77.613782 46.300754 -63.876924 41.495207 C -59.263043 39.88114 -55.039576 38.465715 -51.305599 37.117179 C -44.428016 34.633319 -39.211563 32.376859 -33.536141 29.78326 C -25.026803 25.894595 -15.485652 21.248318 -5.1792151 16.887923 C 2.5118188 13.634039 10.629273 10.539195 19.286475 9.4909587 C 21.974252 9.1655137 24.713615 9.0571379 27.448767 9.0946005 L 27.448767 -128.00556 z " />
      <path
         id="path1152"
         style="display:inline;fill:none;stroke:#000000;stroke-width:0.0264583;stroke-linecap:round;stroke-dasharray:none;stroke-opacity:1"
         d="m -61.041817,-121.88281 c 0,-1.81473 -2.722094,-1.81473 -2.722094,0 0,1.81473 2.722094,1.81473 2.722094,0 z m 88.01948,-0.25375 c 0,-1.81473 -2.722094,-1.81473 -2.722094,0 0,1.81473 2.722094,1.81473 2.722094,0 z m -43.879802,-14.3163 c 0,-1.81473 -2.722094,-1.81473 -2.722094,0 0,1.81473 2.722094,1.81473 2.722094,0 z M -3.9210703,9.8050207 c 0,-1.8147281 -2.7220934,-1.8147281 -2.7220934,0 0,1.8147283 2.7220934,1.8147283 2.7220934,0 z M -46.81751,29.142833 c -9.83e-4,-1.813744 -2.723076,-1.813744 -2.722093,0 9.83e-4,1.813744 2.723076,1.813744 2.722093,0 z m -48.157966,8.908443 c 0,-1.814728 -2.722094,-1.814728 -2.722094,0 0,1.814728 2.722094,1.814728 2.722094,0 z m 32.706136,-79.697117 c -0.0024,-1.812318 -2.719683,-1.812318 -2.72209,0 0.0024,1.812318 2.719683,1.812318 2.72209,0 z"
         inkscape:label="contour holes"
         sodipodi:nodetypes="ssssssssssssssssssccc" />
      <path
         id="path1154"
         style="display:inline;fill:none;stroke:#000000;stroke-width:0.0264583;stroke-linecap:round;stroke-dasharray:none;stroke-opacity:1"
         d="m -79.169327,30.439665 a 4.0871528,4.0871528 0 0 0 -8.174305,0 4.0871528,4.0871528 0 0 0 8.174305,0 z M -54.219653,1.6511283 a 4.087154,4.087154 0 0 0 -8.174308,0 4.087154,4.087154 0 0 0 8.174308,0 z m 17.815495,-33.6058393 a 4.0871528,4.0871528 0 0 0 -8.174305,0 4.0871528,4.0871528 0 0 0 8.174305,0 z"
         inkscape:label="pots holes"
         transform="translate(0)" />
      <path
         id="path1156"
         style="display:inline;fill:none;stroke:#000000;stroke-width:0.0264583;stroke-linecap:round;stroke-dasharray:none;stroke-opacity:1"
         d="m -36.885993,-46.030066 a 1.3623843,1.3623843 0 0 0 -2.724768,0 1.3623843,1.3623843 0 0 0 2.724768,0 z m 11.584071,-65.725134 a 1.3623843,1.3623843 0 0 0 -2.724768,0 1.3623843,1.3623843 0 0 0 2.724768,0 z"
         inkscape:label="bridge holes"
         transform="translate(0)" />
      <path
         id="path1158"
         style="display:inline;fill:none;stroke:#000000;stroke-width:0.0264583;stroke-linecap:round;stroke-dasharray:none;stroke-opacity:1"
         d="m -20.924515,-100.17641 c 0.734486,-4.16755 -2.048556,-8.1415 -6.21615,-8.87604 -4.167594,-0.73454 -8.141557,2.04849 -8.876119,6.21611 l -7.971356,45.227443 c -0.734051,4.167368 2.048951,8.140847 6.216252,8.875334 4.167301,0.734486 8.141062,-2.048114 8.876016,-6.215408 z"
         inkscape:label="bridge"
         sodipodi:nodetypes="csccscc"
         transform="translate(0)" />
      <path
         id="path1164"
         style="display:inline;fill:none;stroke:#000000;stroke-width:0.0264583;stroke-linecap:round;stroke-dasharray:none;stroke-opacity:1"
         d="m 17.825374,-112.36407 a 1.3623842,1.3623842 0 0 0 -2.724768,0 1.3623842,1.3623842 0 0 0 2.724768,0 z m 0,66.942873 a 1.3623842,1.3623842 0 0 0 -2.724768,0 1.3623842,1.3623842 0 0 0 2.724768,0 z"
         inkscape:label="middle holes"
         transform="translate(0)" />
      <path
         id="path1166"
         style="display:inline;fill:none;stroke:#000000;stroke-width:0.0264583;stroke-linecap:round;stroke-dasharray:none;stroke-opacity:1"
         d="m 16.46299,-109.26817 c -4.328233,0 -7.8371526,3.50835 -7.8378043,7.83656 v 45.077912 c 6.517e-4,4.328244 3.5095713,7.836597 7.8378043,7.836597 4.328233,0 7.837153,-3.508353 7.837782,-7.836597 v -45.077912 c -6.29e-4,-4.32821 -3.509549,-7.83656 -7.837782,-7.83656 z"
         inkscape:label="middle"
         sodipodi:nodetypes="sccsccs"
         transform="translate(0)" />
      <path
         id="path1168"
         style="display:inline;fill:none;stroke:#000000;stroke-width:0.0264583;stroke-linecap:round;stroke-dasharray:none;stroke-opacity:1"
         d="m -28.097842,11.92352 16.063365,-14.7351952 c 0.668308,-0.6140578 -0.252644,-1.6180206 -0.920982,-1.0040276 L -29.018825,10.919493 c -0.668227,0.614074 0.252726,1.618034 0.920983,1.004027 z"
         inkscape:label="selector"
         sodipodi:nodetypes="ccccc"
         transform="translate(0)" />
      <path
         id="path1170"
         style="display:inline;fill:none;stroke:#000000;stroke-width:0.0264583;stroke-linecap:round;stroke-dasharray:none;stroke-opacity:1"
         d="m -6.0619463,-7.9650853 a 1.3623843,1.3623843 0 0 0 -2.7247683,0 1.3623843,1.3623843 0 0 0 2.7247683,0 z M -32.266561,16.072917 a 1.3623855,1.3623855 0 0 0 -2.724771,0 1.3623855,1.3623855 0 0 0 2.724771,0 z"
         inkscape:label="selector holes"
         transform="translate(0)" />
    </g>
  </g>
</svg>
