<?xml version="1.0" encoding="UTF-8" standalone="no"?>
<!-- Created with Inkscape (http://www.inkscape.org/) -->

<svg
   width="210mm"
   height="297mm"
   viewBox="0 0 210 297"
   version="1.1"
   id="svg928"
   inkscape:version="1.2.1 (9c6d41e410, 2022-07-14)"
   sodipodi:docname="strat-sss-11h_freecad_top.svg"
   xmlns:inkscape="http://www.inkscape.org/namespaces/inkscape"
   xmlns:sodipodi="http://sodipodi.sourceforge.net/DTD/sodipodi-0.dtd"
   xmlns="http://www.w3.org/2000/svg"
   xmlns:svg="http://www.w3.org/2000/svg">
  <sodipodi:namedview
     id="namedview930"
     pagecolor="#505050"
     bordercolor="#ffffff"
     borderopacity="1"
     inkscape:showpageshadow="0"
     inkscape:pageopacity="0"
     inkscape:pagecheckerboard="1"
     inkscape:deskcolor="#505050"
     inkscape:document-units="mm"
     showgrid="false"
     inkscape:zoom="2"
     inkscape:cx="-253.5"
     inkscape:cy="-73.5"
     inkscape:current-layer="layer1" />
  <defs
     id="defs925" />
  <g
     inkscape:label="Layer 1"
     inkscape:groupmode="layer"
     id="layer1"
     transform="rotate(-90,30.94268,-14.478255)">
    <g
       id="g924"
       inkscape:label="top"
       style="display:inline">
      <path
         id="path1404"
         style="display:inline;fill:none;stroke:#000000;stroke-width:0.0264583;stroke-linecap:round;stroke-dasharray:none;stroke-opacity:1"
         inkscape:label="selector holes"
         d="m 139.52203,20.193148 c -0.005,-0.252509 -0.0437,-0.502818 -0.11162,-0.73794 -0.13605,-0.470792 -0.38813,-0.880859 -0.73794,-1.201993 -0.49223,-0.451929 -1.17812,-0.727713 -1.84072,-0.935344 -0.99664,-0.312317 -1.94043,-0.47019 -2.89026,-0.629419 -3.15451,-0.528816 -6.37265,-1.069496 -9.61802,-1.814359 -7.62708,-1.750541 -15.40437,-4.631065 -21.547,-9.3482669 C 96.298029,0.55074834 91.637709,-6.4672658 88.931836,-14.299837 c -1.294285,-3.746509 -2.141644,-7.679496 -2.254126,-11.429277 -0.178615,-5.954371 1.495409,-11.446936 3.936194,-17.501774 1.62251,-4.024938 3.583881,-8.29796 4.67465,-11.670605 -0.171053,-0.02822 -0.341894,-0.05667 -0.51263,-0.08682 -0.166158,-0.02934 -0.33228,-0.06017 -0.497644,-0.09353 -0.08416,-0.01698 -0.168311,-0.03492 -0.252181,-0.05323 -0.08366,-0.01825 -0.166824,-0.03708 -0.250114,-0.05684 -0.08303,-0.01972 -0.166064,-0.04021 -0.248564,-0.06201 -0.08228,-0.02173 -0.164028,-0.04466 -0.245979,-0.0677 -0.793914,-0.206213 -1.452625,-0.478093 -2.066541,-0.891418 -0.535565,-0.360577 -1.036934,-0.828787 -1.351855,-1.402498 -0.297392,-0.541773 -0.428406,-1.177443 -0.550871,-1.83193 -0.647612,-3.461 -1.062589,-7.445397 -1.363741,-10.873238 -0.303821,-3.458189 -0.491722,-6.350272 -0.471289,-9.529134 0.03063,-4.764584 0.529644,-10.174106 1.312581,-15.632638 0.198326,-1.382693 0.41469,-2.768459 0.679545,-3.747058 0.130062,-0.480556 0.271733,-0.862633 0.566891,-1.302243 0.462403,-0.68869 1.301554,-1.51786 2.183329,-1.94045 0.616363,-0.29538 1.253601,-0.39224 2.482536,-0.39223 h 18.409213 c 0.7054,0.0378 1.41049,0.0755 2.1146,0.11317 0.69543,-1.98628 1.45185,-3.96565 2.281,-5.90661 0.68715,-1.60858 1.42438,-3.19043 2.08669,-4.85087 0.54287,-1.36099 1.03551,-2.77476 1.12861,-4.20543 0.0707,-1.0875 -0.0894,-2.18511 -0.37465,-3.17086 -0.2821,-0.97486 -0.6869,-1.84036 -1.3932,-2.68976 -0.56899,-0.68429 -1.3336,-1.35787 -2.13992,-1.84795 -1.08156,-0.65739 -2.23743,-0.98487 -3.37757,-1.07797 -1.01981,-0.0833 -2.02691,0.0208 -3.04322,0.17725 -2.79783,0.43081 -5.66534,1.26031 -8.39122,1.91461 -1.84203,0.44215 -3.619605,0.80464 -5.459619,1.14774 -4.684945,0.87358 -9.775253,1.62384 -14.795996,2.13837 -5.650886,0.57912 -11.213576,0.8594 -16.666166,0.74569 -5.520324,-0.11512 -10.928162,-0.63395 -16.51217,-1.69964 -3.821462,-0.72932 -7.725237,-1.71476 -11.508342,-2.81895 -4.124154,-1.20374 -8.104878,-2.54846 -11.938806,-3.93671 -3.220422,-1.1661 -6.33743,-2.36268 -9.590112,-3.66076 -3.467111,-1.38365 -7.088066,-2.8823 -10.7166589,-4.26589 V 13.000822 C 9.4747478,11.394411 14.2881,10.096174 19.286475,9.4909587 27.871652,8.451437 36.987671,9.4249624 44.78621,11.379732 c 6.423008,1.609981 11.952482,3.88561 17.874878,6.384107 4.175214,1.761407 8.545679,3.633558 12.888103,5.322672 3.855532,1.499725 7.688805,2.855143 11.541931,3.932577 8.63544,2.414695 17.370898,3.433036 26.857278,3.24838 7.41098,-0.144255 15.28031,-1.022622 23.0234,-6.606315 1.07654,-0.776315 2.15078,-1.643765 2.45618,-2.71663 0.0695,-0.244112 0.0987,-0.498867 0.0941,-0.751375 z" />
      <path
         id="path953"
         style="display:inline;fill:none;stroke:#000000;stroke-width:0.0264583;stroke-linecap:round;stroke-dasharray:none;stroke-opacity:1"
         d="m 77.159038,15.906004 c -9.83e-4,-1.813744 -2.723076,-1.813744 -2.722093,0 9.83e-4,1.813744 2.723076,1.813744 2.722093,0 z M 113.84274,-118.3706 c 0,-1.81474 -2.72211,-1.81474 -2.72211,0 0,1.81474 2.72211,1.81474 2.72211,0 z m -86.865077,-3.76596 c 0,-1.81473 -2.722094,-1.81473 -2.722094,0 0,1.81473 2.722094,1.81473 2.722094,0 z m 59.796348,73.131885 c -0.0018,-1.812887 -2.720252,-1.812887 -2.722091,0 0.0018,1.812887 2.720252,1.812887 2.722091,0 z m 41.720169,70.663844 c -0.005,-1.80925 -2.71662,-1.80925 -2.72208,0 0.005,1.80925 2.71662,1.80925 2.72208,0 z"
         inkscape:label="contour holes"
         sodipodi:nodetypes="ssssssssscccccc" />
      <path
         id="path961"
         style="display:inline;fill:none;stroke:#000000;stroke-width:0.0264583;stroke-linecap:round;stroke-dasharray:none;stroke-opacity:1"
         d="m 69.601151,-45.467951 a 1.3623845,1.3623845 0 0 0 -2.724769,0 1.3623845,1.3623845 0 0 0 2.724769,0 z m 0,-66.849359 a 1.3623845,1.3623845 0 0 0 -2.724769,0 1.3623845,1.3623845 0 0 0 2.724769,0 z"
         inkscape:label="middle holes" />
      <path
         id="path963"
         style="display:inline;fill:none;stroke:#000000;stroke-width:0.0264583;stroke-linecap:round;stroke-dasharray:none;stroke-opacity:1"
         d="m 60.378234,-56.353698 c 7.37e-4,4.340748 3.519795,7.859238 7.860532,7.859238 4.340737,0 7.859795,-3.51849 7.860452,-7.859238 v -45.077912 c -6.57e-4,-4.34071 -3.519715,-7.8592 -7.860452,-7.8592 -4.340737,0 -7.859795,3.51849 -7.860532,7.8592 z"
         inkscape:label="middle"
         sodipodi:nodetypes="csccscc" />
      <path
         id="path965"
         style="display:inline;fill:none;stroke:#000000;stroke-width:0.0264583;stroke-linecap:round;stroke-dasharray:none;stroke-opacity:1"
         d="m 17.825374,-112.36407 a 1.3623842,1.3623842 0 0 0 -2.724768,0 1.3623842,1.3623842 0 0 0 2.724768,0 z m 0,66.942873 a 1.3623842,1.3623842 0 0 0 -2.724768,0 1.3623842,1.3623842 0 0 0 2.724768,0 z"
         inkscape:label="middle holes" />
      <path
         id="path967"
         style="display:inline;fill:none;stroke:#000000;stroke-width:0.0264583;stroke-linecap:round;stroke-dasharray:none;stroke-opacity:1"
         d="m 16.46299,-109.26817 c -4.328233,0 -7.8371526,3.50835 -7.8378043,7.83656 v 45.077912 c 6.517e-4,4.328244 3.5095713,7.836597 7.8378043,7.836597 4.328233,0 7.837153,-3.508353 7.837782,-7.836597 v -45.077912 c -6.29e-4,-4.32821 -3.509549,-7.83656 -7.837782,-7.83656 z"
         inkscape:label="middle"
         sodipodi:nodetypes="sccsccs" />
    </g>
  </g>
</svg>
