<?xml version="1.0" encoding="UTF-8" standalone="no"?>
<!-- Created with Inkscape (http://www.inkscape.org/) -->

<svg
   width="210mm"
   height="297mm"
   viewBox="0 0 210 297"
   version="1.1"
   id="svg5"
   xml:space="preserve"
   inkscape:version="1.2.1 (9c6d41e410, 2022-07-14, custom)"
   sodipodi:docname="strat-sss-11h-floyd_freecad.svg"
   xmlns:inkscape="http://www.inkscape.org/namespaces/inkscape"
   xmlns:sodipodi="http://sodipodi.sourceforge.net/DTD/sodipodi-0.dtd"
   xmlns="http://www.w3.org/2000/svg"
   xmlns:svg="http://www.w3.org/2000/svg"><sodipodi:namedview
     id="namedview7"
     pagecolor="#505050"
     bordercolor="#ffffff"
     borderopacity="1"
     inkscape:showpageshadow="0"
     inkscape:pageopacity="0"
     inkscape:pagecheckerboard="1"
     inkscape:deskcolor="#505050"
     inkscape:document-units="mm"
     showgrid="false"
     inkscape:zoom="32"
     inkscape:cx="448.21875"
     inkscape:cy="17.46875"
     inkscape:current-layer="layer1"><inkscape:page
       x="0"
       y="0"
       width="210"
       height="297"
       id="page212" /><inkscape:page
       x="220"
       y="0"
       width="215.89999"
       height="279.40002"
       id="page214" /><inkscape:page
       x="445.89999"
       y="0"
       width="215.89999"
       height="355.60001"
       id="page648" /><inkscape:page
       x="671.79999"
       y="0"
       width="209.90277"
       height="297.03894"
       id="page482" /></sodipodi:namedview><defs
     id="defs2"><inkscape:path-effect
       effect="spiro"
       id="path-effect1151"
       is_visible="true"
       lpeversion="1" /><inkscape:path-effect
       effect="spiro"
       id="path-effect3949"
       is_visible="true"
       lpeversion="1" /><inkscape:path-effect
       effect="spiro"
       id="path-effect3885"
       is_visible="true"
       lpeversion="1" /><inkscape:path-effect
       effect="spiro"
       id="path-effect3786"
       is_visible="true"
       lpeversion="1" /><inkscape:path-effect
       effect="spiro"
       id="path-effect3747"
       is_visible="true"
       lpeversion="1" /><inkscape:path-effect
       effect="spiro"
       id="path-effect3605"
       is_visible="true"
       lpeversion="1" /><inkscape:path-effect
       effect="spiro"
       id="path-effect1971"
       is_visible="true"
       lpeversion="1" /><inkscape:path-effect
       effect="spiro"
       id="path-effect574"
       is_visible="true"
       lpeversion="1" /><inkscape:path-effect
       effect="spiro"
       id="path-effect3605-3"
       is_visible="true"
       lpeversion="1" /></defs><g
     inkscape:label="Layer 1"
     inkscape:groupmode="layer"
     id="layer1"
     style="display:inline"><path
       d="m 699.7997,66.277813 c 0.9797,-0.0665 1.82788,0.6737 1.89438,1.653399 0.0665,0.979699 -0.67377,1.827777 -1.65347,1.894311 -0.97973,0.0665 -1.82792,-0.6737 -1.89441,-1.653434 -0.0665,-0.97977 0.6738,-1.827777 1.6535,-1.894276 z"
       style="display:inline;fill:none;stroke:#040002;stroke-width:0.264583;stroke-dasharray:none;stroke-opacity:1;fill-opacity:1;fill-rule:evenodd;stroke-linecap:butt;stroke-linejoin:miter;stroke-miterlimit:22.9256"
       id="path933"
       transform="rotate(180,346.05035,60.379119)" /><path
       d="m 727.7119,96.770407 c 0.9797,-0.0666 1.82788,0.6737 1.89438,1.653399 0.0665,0.979699 -0.67377,1.827814 -1.6535,1.894314 -0.9797,0.0665 -1.82789,-0.673703 -1.89439,-1.653508 -0.0665,-0.979699 0.67381,-1.827706 1.65351,-1.894205 z"
       style="display:inline;fill:none;stroke:#040002;stroke-width:0.264583;stroke-dasharray:none;stroke-opacity:1;fill-opacity:1;fill-rule:evenodd;stroke-linecap:butt;stroke-linejoin:miter;stroke-miterlimit:22.9256"
       id="path935"
       transform="rotate(180,346.05035,60.379119)" /><path
       d="m 671.1085,101.50772 c 2.62449,-0.17822 4.89648,1.80499 5.0746,4.42937 0.17819,2.62442 -1.80492,4.89652 -4.42941,5.0746 -2.62459,0.17823 -4.89648,-1.80488 -5.07471,-4.42937 -0.17818,-2.62442 1.80492,-4.89641 4.42952,-5.0746 z"
       style="display:inline;fill:none;stroke:#040002;stroke-width:0.264583;stroke-dasharray:none;stroke-opacity:1;fill-opacity:1;fill-rule:evenodd;stroke-linecap:butt;stroke-linejoin:miter;stroke-miterlimit:22.9256"
       id="path937"
       transform="rotate(180,346.05035,60.379119)" /><path
       d="m 709.81859,122.44691 c 2.62449,-0.17822 4.89652,1.80499 5.07471,4.42941 0.17808,2.62439 -1.80499,4.89649 -4.42952,5.07457 -2.62449,0.17822 -4.89648,-1.80488 -5.07467,-4.42937 -0.17812,-2.62442 1.80499,-4.89642 4.42948,-5.07461 z"
       style="display:inline;fill:none;stroke:#040002;stroke-width:0.264583;stroke-dasharray:none;stroke-opacity:1;fill-opacity:1;fill-rule:evenodd;stroke-linecap:butt;stroke-linejoin:miter;stroke-miterlimit:22.9256"
       id="path939"
       transform="rotate(180,346.05035,60.379119)" /><path
       d="m 742.80331,151.5175 c 2.62459,-0.17819 4.89648,1.80491 5.07467,4.4294 0.17822,2.62439 -1.80488,4.89642 -4.42948,5.07461 -2.62452,0.17818 -4.89652,-1.80499 -5.0746,-4.42941 -0.17822,-2.62438 1.80488,-4.89649 4.42941,-5.0746 z"
       style="display:inline;fill:none;stroke:#040002;stroke-width:0.264583;stroke-dasharray:none;stroke-opacity:1;fill-opacity:1;fill-rule:evenodd;stroke-linecap:butt;stroke-linejoin:miter;stroke-miterlimit:22.9256"
       id="path941"
       transform="rotate(180,346.05035,60.379119)" /><path
       d="m 704.67078,74.601323 c -0.6405,-0.831603 0.35271,-1.788619 1.35672,-1.098833 l 16.66839,18.202205 c 0.59652,1.092306 -0.6484,1.813807 -1.4618,1.34112 z"
       style="display:inline;fill:none;stroke:#040002;stroke-width:0.264583;stroke-dasharray:none;stroke-opacity:1;fill-opacity:1;fill-rule:evenodd;stroke-linecap:butt;stroke-linejoin:miter;stroke-miterlimit:22.9256"
       id="path943"
       transform="rotate(180,346.05035,60.379119)" /><path
       d="m 112.76192,140.68419 c -0.9447,0.0642 -1.76248,-0.64971 -1.82668,-1.59441 -0.0641,-0.94471 0.64971,-1.76251 1.59448,-1.82668 0.94471,-0.0641 1.76252,0.64967 1.82672,1.59448 0.0641,0.9447 -0.64981,1.76251 -1.59452,1.82661 z"
       style="display:inline;fill:none;fill-opacity:1;fill-rule:evenodd;stroke:#040002;stroke-width:0.264583;stroke-linecap:butt;stroke-linejoin:miter;stroke-miterlimit:22.9256;stroke-dasharray:none;stroke-opacity:1"
       id="path2352"
       transform="rotate(-0.45795453,369.92275,41.261705)" /><path
       d="m 35.251358,140.23132 c -0.94471,0.0641 -1.76259,-0.64971 -1.82668,-1.59441 -0.0641,-0.94481 0.64967,-1.76258 1.59437,-1.82668 0.94481,-0.0642 1.76262,0.64967 1.82672,1.59438 0.0642,0.9447 -0.64971,1.76261 -1.59441,1.82671 z"
       style="display:inline;fill:none;fill-opacity:1;fill-rule:evenodd;stroke:#040002;stroke-width:0.264583;stroke-linecap:butt;stroke-linejoin:miter;stroke-miterlimit:22.9256;stroke-dasharray:none;stroke-opacity:1"
       id="path2354"
       transform="rotate(-0.45795453,369.92275,41.261705)" /><path
       d="M 100.13867,148.45051 47.107298,148.0323 c -4.99579,-0.0394 -9.04889,-4.4139 -9.00712,-9.7213 v 0 c 0.0418,-5.3074 4.16352,-9.61732 9.15931,-9.57799 l 53.031352,0.41829 c 4.99581,0.0393 9.04898,4.41378 9.00711,9.72118 v 0 c -0.0418,5.3074 -4.16363,9.61744 -9.15928,9.57803 z"
       style="display:inline;fill:none;stroke:#040002;stroke-width:0.264583;stroke-linecap:butt;stroke-linejoin:miter;stroke-miterlimit:22.9256;stroke-dasharray:none;stroke-opacity:1"
       id="path2404"
       transform="rotate(-0.45795453,369.92275,41.261705)" /><path
       d="m 35.778208,80.06523 c -0.9447,0.0642 -1.76262,-0.64971 -1.82672,-1.59441 -0.0641,-0.9447 0.64971,-1.762579 1.59452,-1.826679 0.94471,-0.0641 1.76248,0.64967 1.82658,1.594379 0.0642,0.9448 -0.64967,1.76261 -1.59438,1.82671 z"
       style="display:inline;fill:none;fill-opacity:1;fill-rule:evenodd;stroke:#040002;stroke-width:0.264583;stroke-linecap:butt;stroke-linejoin:miter;stroke-miterlimit:22.9256;stroke-dasharray:none;stroke-opacity:1"
       id="path1622"
       transform="rotate(-0.45795453,369.92275,41.261705)" /><path
       d="m 113.27694,80.572642 c -0.94477,0.0641 -1.76258,-0.64971 -1.82668,-1.59452 -0.0642,-0.9447 0.64971,-1.762479 1.59438,-1.826679 0.9447,-0.0641 1.76262,0.649669 1.82672,1.594479 0.0641,0.9447 -0.64971,1.76251 -1.59442,1.82672 z"
       style="display:inline;fill:none;fill-opacity:1;fill-rule:evenodd;stroke:#040002;stroke-width:0.264583;stroke-linecap:butt;stroke-linejoin:miter;stroke-miterlimit:22.9256;stroke-dasharray:none;stroke-opacity:1"
       id="path1624"
       transform="rotate(-0.45795453,369.92275,41.261705)" /><path
       d="m 100.87594,88.557563 -53.031332,-0.41818 c -4.99573,-0.0394 -9.049,-4.41392 -9.00702,-9.72121 v 0 c 0.0418,-5.30751 4.16341,-9.6175 9.15931,-9.5781 l 53.031232,0.41822 c 4.99583,0.0394 9.049,4.41389 9.00712,9.72129 v 0 c -0.0419,5.3074 -4.16352,9.61739 -9.15931,9.57798 z"
       style="display:inline;fill:none;stroke:#040002;stroke-width:0.264583;stroke-linecap:butt;stroke-linejoin:miter;stroke-miterlimit:22.9256;stroke-dasharray:none;stroke-opacity:1"
       id="path1668"
       transform="rotate(-0.45795453,369.92275,41.261705)" /><path
       d="m 654.7746,101.62922 c 0.94481,-0.0641 1.76259,0.64967 1.82669,1.59437 0.0642,0.94481 -0.64968,1.76262 -1.59438,1.82672 -0.94471,0.0642 -1.76262,-0.64971 -1.82672,-1.59441 -0.0641,-0.9447 0.64971,-1.76258 1.59441,-1.82668 z"
       style="display:inline;fill:none;stroke:#040002;stroke-width:0.264583;stroke-dasharray:none;stroke-opacity:1;fill-opacity:1;fill-rule:evenodd;stroke-linecap:butt;stroke-linejoin:miter;stroke-miterlimit:22.9256"
       id="path814"
       transform="rotate(180,346.05035,60.379118)" /><path
       d="m 578.74359,87.864815 c 0.9447,-0.06421 1.76251,0.649675 1.82661,1.594379 0.0642,0.944703 -0.64971,1.762619 -1.59441,1.826718 -0.94467,0.0641 -1.76248,-0.64971 -1.82669,-1.594414 -0.0641,-0.94481 0.64971,-1.762584 1.59449,-1.826683 z"
       style="display:inline;fill:none;stroke:#040002;stroke-width:0.264583;stroke-dasharray:none;stroke-opacity:1;fill-opacity:1;fill-rule:evenodd;stroke-linecap:butt;stroke-linejoin:miter;stroke-miterlimit:22.9256"
       id="path816"
       transform="rotate(180,346.05035,60.379118)" /><path
       d="m 592.50721,82.282212 52.1601,9.582609 c 4.9137,0.902687 8.14938,5.912273 7.19028,11.132399 v 0 c -0.95899,5.22019 -5.764,8.75259 -10.67759,7.8499 l -52.1601,-9.58282 c -4.91381,-0.90269 -8.14931,-5.9122 -7.19028,-11.132394 v 0 c 0.95899,-5.220194 5.76389,-8.752488 10.67759,-7.849694 z"
       style="display:inline;fill:none;stroke:#040002;stroke-width:0.264583;stroke-dasharray:none;stroke-opacity:1;stroke-linecap:butt;stroke-linejoin:miter;stroke-miterlimit:22.9256"
       id="path818"
       transform="rotate(180,346.05035,60.379118)" /><path
       d="m -60.329212,-48.153744 c -0.997934,0.06775 -1.861943,-0.686441 -1.929675,-1.684546 -0.06775,-0.99809 0.686297,-1.862099 1.684403,-1.929832 0.997933,-0.06775 1.861942,0.686455 1.929818,1.684546 0.06775,0.997948 -0.686441,1.862114 -1.684546,1.929832 z"
       style="display:inline;fill:none;fill-opacity:1;fill-rule:evenodd;stroke:#040002;stroke-width:0.377362;stroke-linecap:butt;stroke-linejoin:miter;stroke-miterlimit:22.9256;stroke-dasharray:none;stroke-opacity:1"
       id="path1914" /><path
       d="m -28.257509,57.689943 c -0.997934,0.06777 -1.861931,-0.686438 -1.929706,-1.684371 -0.06775,-0.998085 0.686446,-1.862082 1.68438,-1.929805 0.997934,-0.06777 1.862073,0.686287 1.929848,1.684372 0.06775,0.998084 -0.686431,1.862081 -1.684522,1.929804 z"
       style="display:inline;fill:none;fill-opacity:1;fill-rule:evenodd;stroke:#040002;stroke-width:0.377357;stroke-linecap:butt;stroke-linejoin:miter;stroke-miterlimit:22.9256;stroke-dasharray:none;stroke-opacity:1"
       id="path1916" /><path
       d="m -50.276159,7.783392 c -0.997935,0.067746 -1.862088,-0.6862883 -1.929863,-1.684365 -0.06775,-0.9980911 0.686488,-1.8620878 1.684522,-1.9298623 0.997934,-0.067746 1.861988,0.6863453 1.929706,1.6844221 0.06775,0.998034 -0.686431,1.8620878 -1.684365,1.9298052 z"
       style="display:inline;fill:none;fill-opacity:1;fill-rule:evenodd;stroke:#040002;stroke-width:0.377357;stroke-linecap:butt;stroke-linejoin:miter;stroke-miterlimit:22.9256;stroke-dasharray:none;stroke-opacity:1"
       id="path1918" /><path
       d="m 21.981297,-10.2829 c -0.997934,0.06775 -1.861931,-0.686274 -1.929706,-1.684365 -0.06775,-0.998077 0.686446,-1.862088 1.68438,-1.929805 0.997934,-0.06775 1.86213,0.686445 1.929848,1.684379 0.06775,0.998077 -0.686431,1.862074 -1.684522,1.929791 z"
       style="display:inline;fill:none;fill-opacity:1;fill-rule:evenodd;stroke:#040002;stroke-width:0.377357;stroke-linecap:butt;stroke-linejoin:miter;stroke-miterlimit:22.9256;stroke-dasharray:none;stroke-opacity:1"
       id="path1920" /><path
       d="m 125.0701,-9.1198742 c -0.99793,0.067889 -1.86208,-0.6863305 -1.92986,-1.6843658 -0.0677,-0.998091 0.68645,-1.862131 1.68452,-1.929862 0.99794,-0.06775 1.86193,0.686445 1.92971,1.684379 0.0677,0.998078 -0.68643,1.8620743 -1.68437,1.9298488 z"
       style="display:inline;fill:none;fill-opacity:1;fill-rule:evenodd;stroke:#040002;stroke-width:0.377357;stroke-linecap:butt;stroke-linejoin:miter;stroke-miterlimit:22.9256;stroke-dasharray:none;stroke-opacity:1"
       id="path1922" /><path
       d="m 124.71173,92.80211 c -0.99809,0.06772 -1.86208,-0.686287 -1.92986,-1.684371 -0.0677,-0.998083 0.68649,-1.86208 1.68442,-1.929853 0.99804,-0.06772 1.86209,0.686337 1.92981,1.684371 0.0677,0.998083 -0.68643,1.86213 -1.68437,1.929853 z"
       style="display:inline;fill:none;fill-opacity:1;fill-rule:evenodd;stroke:#040002;stroke-width:0.377357;stroke-linecap:butt;stroke-linejoin:miter;stroke-miterlimit:22.9256;stroke-dasharray:none;stroke-opacity:1"
       id="path1924"
       inkscape:label="path2392" /><path
       d="m 141.70554,42.161443 c -0.99808,0.06777 -1.86213,-0.686438 -1.92985,-1.684521 -0.0677,-0.998086 0.68643,-1.862082 1.68437,-1.929805 0.99809,-0.06777 1.86208,0.686438 1.92986,1.684521 0.0677,0.997934 -0.68645,1.862082 -1.68438,1.929805 z"
       style="display:inline;fill:none;fill-opacity:1;fill-rule:evenodd;stroke:#040002;stroke-width:0.377357;stroke-linecap:butt;stroke-linejoin:miter;stroke-miterlimit:22.9256;stroke-dasharray:none;stroke-opacity:1"
       id="path1926" /><path
       d="m 39.407474,162.89581 c -0.998076,0.0677 -1.862073,-0.68644 -1.929848,-1.68452 -0.06775,-0.99809 0.686431,-1.86209 1.684365,-1.92986 0.998091,-0.0677 1.862131,0.68644 1.929862,1.68452 0.06775,0.99793 -0.686445,1.86209 -1.684379,1.92986 z"
       style="display:inline;fill:none;fill-opacity:1;fill-rule:evenodd;stroke:#040002;stroke-width:0.377357;stroke-linecap:butt;stroke-linejoin:miter;stroke-miterlimit:22.9256;stroke-dasharray:none;stroke-opacity:1"
       id="path1928" /><path
       d="m -43.075939,211.95039 c -0.998091,0.0677 -1.862088,-0.68643 -1.929863,-1.68452 -0.06775,-0.99808 0.686446,-1.86208 1.68438,-1.92985 0.998076,-0.0677 1.862073,0.68643 1.929847,1.68452 0.06775,0.99794 -0.68643,1.86208 -1.684364,1.92985 z"
       style="display:inline;fill:none;fill-opacity:1;fill-rule:evenodd;stroke:#040002;stroke-width:0.377357;stroke-linecap:butt;stroke-linejoin:miter;stroke-miterlimit:22.9256;stroke-dasharray:none;stroke-opacity:1"
       id="path1930" /><path
       d="m -35.747608,151.92529 c -0.998105,0.0677 -1.862114,-0.68645 -1.929833,-1.6844 -0.06775,-0.99809 0.686441,-1.8621 1.684389,-1.92984 0.998105,-0.0679 1.862114,0.6863 1.929833,1.68441 0.06775,0.99809 -0.686441,1.8621 -1.684389,1.92983 z"
       style="display:inline;fill:none;fill-opacity:1;fill-rule:evenodd;stroke:#040002;stroke-width:0.377362;stroke-linecap:butt;stroke-linejoin:miter;stroke-miterlimit:22.9256;stroke-dasharray:none;stroke-opacity:1"
       id="path1932" /><path
       d="m 119.72378,194.52425 c -0.99794,0.0678 -1.86199,-0.68633 -1.9297,-1.68442 -0.0679,-0.99804 0.68628,-1.86208 1.68436,-1.92981 0.99793,-0.0678 1.86192,0.68628 1.92985,1.68438 0.0678,0.99808 -0.68648,1.86207 -1.68451,1.92985 z"
       style="display:inline;fill:none;fill-opacity:1;fill-rule:evenodd;stroke:#040002;stroke-width:0.377356;stroke-linecap:butt;stroke-linejoin:miter;stroke-miterlimit:22.9256;stroke-dasharray:none;stroke-opacity:1"
       id="path1934" /><path
       id="path1149"
       style="display:inline;fill:none;stroke:#000000;stroke-width:0.264583px;stroke-linecap:butt;stroke-linejoin:miter;stroke-opacity:1"
       inkscape:path-effect="#path-effect1151"
       inkscape:original-d="m 101.86275,170.96735 c -0.0419,-0.28297 -0.17156,-0.66797 -0.25776,-1.00236 -0.0862,-0.33438 -0.18833,-0.50994 -0.28283,-0.76531 -0.0945,-0.25537 -0.39497,-0.62096 -0.59285,-0.93183 -0.19788,-0.31088 -0.52679,-0.5589 -0.790582,-0.83874 -0.263793,-0.27985 -0.69401,-0.50795 -1.041414,-0.76232 -0.3474,-0.25437 -0.74885,-0.28758 -1.123672,-0.43177 -0.374822,-0.14419 -0.765929,-0.17071 -1.149292,-0.25651 -0.383362,-0.0858 -1.218205,-0.24921 -1.827704,-0.37421 -0.6095,-0.125 -1.263298,-0.22952 -1.895343,-0.34468 -0.632044,-0.11516 -1.68008,-0.25118 -2.520516,-0.37716 -0.840438,-0.12598 -1.345552,-0.14568 -2.018723,-0.21898 -0.673172,-0.0733 -1.9314,-0.17748 -2.897497,-0.26658 -0.9661,-0.0891 -1.577909,-0.10096 -2.367262,-0.15186 -0.78935,-0.0509 -1.855591,-0.0967 -2.783781,-0.14552 -0.928193,-0.0488 -1.812954,-0.0638 -2.71983,-0.0961 -0.906872,-0.0323 -0.8344,-0.0287 -1.251997,-0.0434 -0.417598,-0.0147 -0.810506,-10e-4 -1.216155,-0.002 -0.405649,-0.001 -1.244783,0.035 -1.867569,0.0521 -0.62279,0.0171 -1.293077,0.0101 -1.934948,0.0417 -0.641871,0.0316 -1.552792,0.0914 -2.334649,0.10989 -0.781857,0.0184 -1.367473,0.06 -2.051606,0.0897 -0.684133,0.0296 -1.228122,0.11293 -1.84258,0.16893 -0.614455,0.056 -1.211159,0.0904 -1.817134,0.13519 -0.605978,0.0448 -1.087252,0.10096 -1.630362,0.16196 -0.54311,0.061 -1.371926,0.14295 -2.0592,0.20305 -0.687273,0.0601 -1.530556,0.18248 -2.296231,0.27328 -0.765675,0.0908 -1.111073,0.17339 -1.667007,0.25969 -0.555932,0.0863 -1.317945,0.19265 -1.977314,0.28855 -0.659369,0.0959 -0.490862,0.11169 -0.736689,0.16709 -0.24583,0.0554 -0.596924,0.14511 -0.895782,0.21721 -0.298857,0.0721 -0.517853,0.15182 -0.777174,0.22732 -0.259323,0.0755 -0.518486,0.10168 -0.747342,0.22619 -0.228857,0.12451 -0.489969,0.35797 -0.723662,0.49972 -0.233693,0.14175 -0.414399,0.44325 -0.64442,0.63826 -0.230018,0.19501 -0.432911,0.47116 -0.649763,0.70635 -0.216853,0.23518 -0.198463,0.40838 -0.318137,0.60117 -0.119674,0.19279 -0.328715,0.59628 -0.463766,0.89922 -0.135051,0.30294 -0.294316,0.56203 -0.41576,0.86435 -0.121443,0.30232 -0.456686,0.63668 -0.572812,1.0646 -0.411372,-0.10649 -0.29857,-0.046 -1.044827,-0.36014 -0.746258,-0.31417 -1.615431,-0.64545 -2.345392,-0.94537 -0.729959,-0.29992 -1.562931,-0.64098 -2.209792,-0.90369 -0.646862,-0.26272 -1.15646,-0.5059 -1.919584,-0.8335 -0.763125,-0.3276 -1.543577,-0.66579 -2.290167,-0.9836 -0.746594,-0.31781 -1.592178,-0.68864 -2.240571,-0.95423 -0.648394,-0.26559 -1.275737,-0.50876 -1.945971,-0.79756 -0.670235,-0.28881 -1.396027,-0.6256 -2.043079,-0.8359 -0.647052,-0.21029 -1.223037,-0.47723 -1.869403,-0.7094 -0.646367,-0.23217 -1.334338,-0.47397 -1.98086,-0.65088 -0.646524,-0.17691 -1.328206,-0.4032 -1.940366,-0.53153 -0.612159,-0.12833 -1.229834,-0.27107 -1.837273,-0.38579 -0.607438,-0.11473 -1.248467,-0.24308 -1.823108,-0.34497 -0.57464,-0.10189 -1.112624,-0.24027 -1.724716,-0.30647 -0.612092,-0.0662 -1.365336,-0.16218 -1.837069,-0.19928 -0.471733,-0.0371 -0.738884,-0.0747 -1.415993,-0.11199 -0.677107,-0.0373 -1.31662,-0.12273 -2.032118,-0.11273 -0.715497,0.01 -1.583948,0.007 -2.147285,0.0285 -0.563336,0.0213 -1.113597,0.0611 -1.650786,0.099 -0.537189,0.0379 -0.8740669,0.0311 -1.5587509,0.10696 -0.684684,0.0759 -1.5400805,0.16891 -2.1482504,0.24731 -0.6081699,0.0784 -1.2132498,0.14271 -1.799294,0.23201 -0.5860444,0.0893 -1.2369378,0.13698 -1.7718626,0.27227 -0.534925,0.13528 -1.0485934,0.2294 -1.6060017,0.37107 -0.5574082,0.14166 -1.02725727,0.23124 -1.63704171,0.45798 -0.60978445,0.22674 -1.28295399,0.40535 -1.89962589,0.63931 -0.616672,0.23397 -1.1519528,0.42672 -1.6113689,0.63324 -0.4594161,0.20652 -0.6644146,0.22586 -1.5663074,0.69673 -0.9018929,0.47087 -1.8877316,0.91445 -2.4624124,1.24476 -0.5746808,0.3303 -1.3897814,0.73578 -1.9281918,1.07405 -0.5384103,0.33827 -1.2382573,0.71349 -1.6925653,1.00064 -0.454308,0.28715 -0.855596,0.54474 -1.334026,0.88261 -0.478429,0.33787 -1.003478,0.71397 -1.354856,0.97656 -0.351378,0.2626 -0.741366,0.52607 -1.13985,0.86767 -0.398483,0.3416 -0.722867,0.55063 -1.213924,0.93685 -0.491057,0.38622 -1.073569,0.89014 -1.434152,1.21569 -0.360584,0.32554 -0.788825,0.6693 -1.111514,0.97205 -0.322689,0.30276 -0.580862,0.50532 -0.976355,0.92691 -0.395492,0.4216 -0.821783,0.80374 -1.262321,1.29107 -0.440538,0.48733 -0.869666,0.92339 -1.259951,1.40015 -0.390284,0.47676 -0.890813,0.96268 -1.276662,1.37404 -0.385848,0.41137 -0.771527,0.90378 -1.039635,1.29621 -0.268108,0.39243 -0.44203,0.58641 -0.898028,1.19883 -0.455998,0.61243 -0.906393,1.21097 -1.301498,1.82374 -0.395102,0.61278 -0.936071,1.35967 -1.247422,1.86863 -0.311351,0.50898 -0.601177,0.94946 -0.869785,1.40997 -0.26861,0.46051 -0.585458,0.9287 -0.827957,1.43518 -0.242501,0.50649 -0.538887,1.05346 -0.782492,1.54406 -0.243602,0.4906 -0.514658,1.00816 -0.73726,1.50632 -0.222602,0.49815 -0.461195,1.07383 -0.66072,1.51678 -0.199525,0.44294 -0.463688,0.97933 -0.613718,1.33682 -0.150029,0.35749 -0.30167,0.72645 -0.460681,1.13003 -0.15901,0.40357 -0.262479,0.67191 -0.449293,1.22048 -0.186812,0.54858 -0.297668,0.95591 -0.509695,1.60773 -0.212026,0.6518 -0.452637,1.37816 -0.601455,1.91323 -0.148817,0.53507 -0.313073,1.02131 -0.460716,1.59601 -0.147643,0.57471 -0.291825,1.06161 -0.488315,2.00898 -0.196488,0.94737 -0.339268,1.88377 -0.453912,2.43997 -0.114647,0.55621 -0.241333,1.15139 -0.327153,1.60665 -0.08582,0.45526 -0.211906,0.84492 -0.33611,1.53605 -0.124206,0.69114 -0.264055,1.24109 -0.393196,2.03986 -0.12914,0.79877 -0.262473,1.79328 -0.444395,2.50922 -0.181922,0.71595 -0.315011,1.49134 -0.463067,2.06561 -0.148055,0.57427 -0.295731,1.17087 -0.436963,1.73288 -0.141232,0.56201 -0.281449,1.23031 -0.462641,1.67436 -0.181189,0.44405 -0.3737,1.08213 -0.544362,1.33135 -0.170661,0.24922 -0.314021,0.54271 -0.512778,0.74686 -0.195507,0.20082 -0.332137,0.39811 -0.609536,0.60117 -0.265371,0.19426 -0.550775,0.38828 -0.866018,0.39228 -0.315243,0.004 -0.601516,0.13549 -0.949467,0.0415 -0.347948,-0.094 -0.801627,-0.15507 -1.028182,-0.27511 -0.226555,-0.12005 -0.380438,-0.09 -0.683532,-0.37598 -0.30309,-0.2859 -0.665841,-0.53626 -0.90063,-0.86405 -0.234791,-0.3278 -0.488605,-0.60185 -0.706561,-0.94504 -0.217959,-0.34318 -0.416805,-0.56082 -0.669103,-1.02904 -0.252296,-0.46822 -0.577305,-1.01044 -0.757439,-1.40546 -0.180131,-0.39503 -0.361561,-0.7822 -0.541192,-1.18587 -0.179631,-0.40367 -0.27614,-0.63167 -0.539683,-1.21181 -0.263547,-0.58013 -0.458505,-0.84422 -0.791433,-1.7412 -0.33293,-0.89699 -0.784431,-1.98629 -0.99958,-2.69175 -0.215148,-0.70545 -0.475975,-1.56834 -0.646237,-2.11715 -0.170264,-0.54881 -0.333639,-0.98067 -0.511585,-1.64723 -0.177945,-0.66657 -0.405018,-1.34616 -0.534633,-2.00049 -0.129614,-0.65432 -0.287834,-1.24283 -0.389638,-1.96376 -0.101804,-0.72094 -0.210425,-1.48458 -0.306205,-2.16361 -0.09578,-0.67903 -0.212313,-1.30093 -0.288123,-2.03789 -0.07581,-0.73696 -0.168687,-1.47985 -0.228227,-2.21168 -0.05955,-0.73183 -0.131413,-1.5383 -0.179433,-2.19628 -0.04802,-0.65797 -0.104234,-1.30271 -0.112934,-2.03435 -0.0087,-0.73165 -0.07104,-1.53507 -0.05887,-2.13608 0.01217,-0.60101 -0.0027,-1.19892 0.03569,-1.80383 0.03842,-0.60489 0.09779,-1.36762 0.114485,-1.81549 0.01669,-0.44787 -0.01081,-0.78853 0.04928,-1.34441 0.06009,-0.55587 0.11974,-1.13588 0.17947,-1.66842 0.05973,-0.53254 0.09823,-1.00929 0.178398,-1.59841 0.08017,-0.58912 0.14152,-1.13269 0.23972,-1.76816 0.09819,-0.63547 0.192908,-1.29627 0.293791,-1.90719 0.100885,-0.61093 0.185848,-1.17263 0.30186,-1.83357 0.116012,-0.66094 0.233302,-1.39738 0.347239,-1.98362 0.113935,-0.58624 0.214816,-1.24911 0.341016,-1.75951 0.126199,-0.5104 0.21666,-0.8257 0.377804,-1.53199 0.161145,-0.70629 0.368536,-1.63952 0.48264,-2.11965 0.114104,-0.48014 0.228509,-0.9436 0.36687,-1.44586 0.138359,-0.50225 0.268443,-0.97668 0.417697,-1.49993 0.149257,-0.52324 0.27307,-0.97968 0.461524,-1.5569 0.188455,-0.57721 0.340253,-1.12694 0.521257,-1.74903 0.181004,-0.62208 0.337058,-1.289 0.542216,-1.86704 0.20516,-0.57804 0.420235,-1.31135 0.577106,-1.75953 0.156871,-0.44818 0.242821,-0.62906 0.462545,-1.334 0.21972,-0.70493 0.450564,-1.37446 0.703228,-2.10234 0.252661,-0.72788 0.544243,-1.60913 0.75719,-2.18444 0.21295,-0.5753 0.457843,-1.37919 0.63805,-1.7267 0.180206,-0.34751 0.295671,-0.74716 0.608234,-1.55063 0.312562,-0.80347 0.538651,-1.24901 0.790545,-1.89174 0.251894,-0.64273 0.367793,-0.93976 0.868311,-2.21324 0.500518,-1.27348 1.177477,-2.94992 1.479506,-3.60509 0.30203,-0.65516 0.655387,-1.46891 0.925886,-2.1026 0.270502,-0.63369 0.516111,-1.23248 0.82698,-1.96511 0.31087,-0.73262 0.514183,-1.20343 0.891532,-2.04467 0.377346,-0.84125 0.827312,-1.7854 1.151639,-2.56717 0.324326,-0.78177 0.683235,-1.59479 0.97393,-2.32041 0.290695,-0.72562 0.623665,-1.53596 0.926166,-2.26553 0.3025,-0.72957 0.50094,-1.40606 0.79667,-2.11547 0.295727,-0.7094 0.642531,-1.58566 0.831624,-2.13714 0.189092,-0.55149 0.416655,-1.09274 0.593315,-1.62934 0.176657,-0.5366 0.396632,-0.9716 0.579351,-1.49603 0.182719,-0.52443 0.600562,-1.98145 0.502322,-1.68147 -0.07106,0.21699 0.461628,-1.53364 0.640577,-2.13571 0.178949,-0.60207 0.364709,-1.18148 0.536876,-1.79848 0.172167,-0.61701 0.395928,-1.34981 0.541486,-1.98125 0.14556,-0.63143 0.336481,-1.29884 0.478155,-1.89618 0.141673,-0.59735 0.286652,-1.10972 0.403849,-1.72564 0.117195,-0.61591 0.25535,-1.29468 0.373114,-1.87815 0.11776,-0.58347 0.193943,-1.1753 0.285913,-1.73861 0.09197,-0.5633 0.203018,-1.14509 0.271488,-1.69825 0.06847,-0.55317 0.21152,-0.83403 0.2927,-1.52343 0.08118,-0.68941 0.169917,-1.34501 0.242747,-2.06901 0.07283,-0.72399 0.170997,-1.5215 0.217697,-2.17278 0.0467,-0.65127 0.09589,-1.272271 0.139314,-1.954618 0.04341,-0.68235 0.105065,-1.359117 0.129455,-2.047838 0.02441,-0.688724 0.06523,-1.452084 0.07243,-2.066965 0.0073,-0.614878 0.03792,-1.325086 0.02096,-1.845434 -0.01695,-0.520348 -0.04254,-1.104816 -0.05164,-1.561838 -0.0091,-0.457023 0.0081,-0.823947 -0.02819,-1.371862 -0.03625,-0.547913 -0.07291,-1.243333 -0.109553,-1.644536 -0.03663,-0.401204 -0.04361,-0.570654 -0.110702,-1.204408 -0.06708,-0.633753 -0.08768,-1.26928 -0.202043,-1.902055 -0.114372,-0.632777 -0.229989,-1.217234 -0.343906,-1.899126 -0.113916,-0.681892 -0.238286,-1.464188 -0.342543,-2.04647 -0.104253,-0.582282 -0.181321,-1.186246 -0.313557,-1.747639 -0.132236,-0.561393 -0.28026,-1.104228 -0.397502,-1.684973 -0.117242,-0.580747 -0.218305,-1.114832 -0.352521,-1.743035 -0.134212,-0.628203 -0.281487,-1.412676 -0.403431,-1.885399 -0.121946,-0.472724 -0.136419,-0.679294 -0.36663,-1.418964 -0.230214,-0.739666 -0.478751,-1.523208 -0.691433,-2.219798 -0.212683,-0.696587 -0.424223,-1.404935 -0.638839,-2.090558 -0.21462,-0.685625 -0.385318,-1.301649 -0.644647,-2.057664 -0.259329,-0.756015 -0.488207,-1.495658 -0.77878,-2.268842 -0.290573,-0.773181 -0.596273,-1.615146 -0.872514,-2.32034 -0.276241,-0.705197 -0.577707,-1.543884 -0.829516,-2.116378 -0.251809,-0.572495 -0.512689,-1.091764 -0.756224,-1.718281 -0.243539,-0.626518 -0.458378,-1.204061 -0.731404,-1.880346 -0.273026,-0.676286 -0.482539,-1.217592 -0.819875,-2.029654 -0.337333,-0.812061 -0.57907,-1.457512 -1.012798,-2.436979 -0.433729,-0.979469 -0.95752,-2.156108 -1.301978,-2.9392 -0.344458,-0.783093 -0.664194,-1.58224 -1.034169,-2.350072 -0.369975,-0.767831 -0.673838,-1.333164 -1.110715,-2.304288 -0.436878,-0.971124 -0.934472,-2.08493 -1.311426,-2.914163 -0.376957,-0.829233 -0.75379,-1.678509 -1.131663,-2.488496 -0.377875,-0.809988 -0.558064,-1.216983 -1.134417,-2.430756 -0.576352,-1.213776 -1.314386,-2.730521 -1.729851,-3.642119 -0.415464,-0.911598 -0.72772,-1.563857 -1.247187,-2.735588 -0.519467,-1.171731 -1.103943,-2.514378 -1.559193,-3.515989 -0.45525,-1.00161 -1.039063,-2.258813 -1.366541,-3.005624 -0.327477,-0.74681 -0.673166,-1.524363 -0.983226,-2.241224 -0.310057,-0.716863 -0.566581,-1.247538 -0.930968,-2.15138 -0.364389,-0.903843 -0.729747,-1.846869 -1.093957,-2.712321 -0.364212,-0.865451 -0.716121,-1.718244 -1.093425,-2.597147 C -55.68592,12.0964 -55.95235,11.556371 -56.441321,10.3378 -56.930295,9.119228 -57.540749,7.6379921 -57.909036,6.6812913 -58.27732,5.7245905 -58.769435,4.4625476 -59.014685,3.810395 c -0.24525,-0.6521527 -0.472702,-1.2608435 -0.736544,-1.9572519 -0.263845,-0.6964084 -0.414989,-1.10080437 -0.792324,-2.09001898 -0.377338,-0.98921462 -0.854858,-2.19551172 -1.132808,-2.96843762 -0.27795,-0.7729257 -0.420421,-1.1797178 -0.834642,-2.3195711 -0.414223,-1.1398536 -0.92915,-2.473601 -1.243459,-3.4203542 -0.314312,-0.946753 -0.725723,-2.2241132 -0.943729,-2.8410532 -0.218004,-0.61694 -0.377899,-0.985488 -0.654807,-1.851613 -0.27691,-0.866125 -0.554022,-1.704471 -0.831522,-2.599169 -0.2775,-0.894698 -0.583843,-1.870101 -0.833297,-2.684888 -0.249455,-0.814788 -0.652827,-2.053912 -0.749157,-2.445156 -0.09633,-0.391245 -0.149556,-0.585164 -0.289785,-1.174529 -0.140232,-0.589365 -0.168508,-0.823001 -0.421487,-1.768888 -0.252978,-0.945887 -0.544753,-1.966661 -0.75973,-2.838456 -0.214979,-0.871791 -0.396785,-1.523886 -0.645728,-2.616173 -0.248944,-1.092285 -0.606391,-2.596629 -0.747623,-3.277651 -0.141232,-0.681024 -0.27786,-1.1684 -0.424492,-2.043863 -0.14663,-0.875462 -0.332817,-1.957356 -0.440685,-2.627183 -0.107865,-0.669827 -0.236092,-1.239354 -0.324392,-2.010275 -0.0883,-0.770922 -0.229062,-1.73191 -0.265692,-2.313559 -0.03663,-0.581647 -0.07855,-1.248373 -0.110683,-1.745734 -0.03212,-0.497361 -0.10197,-0.936019 -0.09717,-1.492877 0.0048,-0.556856 -0.06174,-0.88532 0.01371,-1.671363 0.07545,-0.786042 0.0854,-1.591929 0.225544,-2.358919 0.140144,-0.766993 0.220017,-1.715534 0.419639,-2.301766 0.199623,-0.586232 0.4586,-1.479003 0.598075,-1.75949 0.139475,-0.280488 0.220096,-0.521454 0.417632,-0.842256 0.197538,-0.320805 0.381071,-0.65477 0.591814,-0.963205 0.210746,-0.308436 0.311902,-0.58325 0.631442,-0.926097 0.319537,-0.342847 0.625475,-0.739283 0.957823,-1.029335 0.332349,-0.29005 0.665231,-0.625494 0.996249,-0.870948 0.33102,-0.245454 0.582263,-0.492715 0.992267,-0.737158 0.410001,-0.244443 0.800737,-0.5236 1.229214,-0.734124 0.428474,-0.210523 0.823619,-0.447116 1.284634,-0.632364 0.461013,-0.185248 0.895562,-0.409004 1.382247,-0.556538 0.486688,-0.147532 0.772996,-0.370602 1.45927,-0.443392 0.686271,-0.07278 1.379648,-0.254509 2.058019,-0.219149 0.67837,0.03535 1.334434,-0.06291 2.034315,0.105275 0.699881,0.168183 1.346187,0.237805 2.098852,0.503751 0.752666,0.265946 1.279353,0.305184 2.257206,0.797044 0.977849,0.491861 1.995159,0.8195 2.93276,1.474788 0.937604,0.655285 2.083303,1.426781 2.812016,1.965065 0.72871,0.538285 1.510612,1.106919 2.185339,1.614062 0.674727,0.50714 1.453369,1.049218 2.023388,1.520629 0.570018,0.471411 0.953614,0.785344 1.709261,1.413439 0.755647,0.628097 1.331235,1.112025 2.266146,1.883494 0.934913,0.77147 1.798396,1.429917 2.803945,2.313618 1.005549,0.8837 1.922471,1.725996 3.015853,2.650307 1.093383,0.924311 1.937645,1.624359 3.279355,2.772143 1.341712,1.147781 3.139448,2.739405 4.024341,3.442554 0.884893,0.703149 1.446253,1.104961 2.653886,2.108653 1.207634,1.003689 2.559244,2.202595 3.622108,3.010278 1.062863,0.807686 2.318553,1.808747 3.187797,2.42226 0.869243,0.613511 1.655248,1.258618 2.606935,1.839743 0.951687,0.581123 1.935124,1.232842 2.854267,1.742581 0.9191431,0.509735 1.4827336,0.936606 2.7566349,1.528417 1.2739013,0.591811 2.104613,1.143715 3.8209101,1.77464 1.7162968,0.630925 3.39546432,1.479299 5.1480969,1.891982 1.7526327,0.412683 4.0165748,1.01146 5.2571039,1.237255 1.2405291,0.225795 2.7907041,0.548516 3.7207942,0.676592 0.930089,0.128076 1.859369,0.270289 2.789475,0.383434 0.930107,0.113145 2.02595,0.271911 2.789526,0.338641 0.763577,0.06673 1.137055,0.08919 2.289937,0.199405 1.152881,0.110217 2.591099,0.28388 3.457849,0.32986 0.866751,0.04597 2.007057,0.09515 2.599459,0.137133 0.592402,0.04198 1.194009,0.05773 1.776413,0.12514 0.582403,0.06741 0.98061,0.141151 1.557274,0.137723 l 0.18502,17.1215526 c 0.03225,0.3575845 0.04141,0.3833871 0.08992,0.5634406 0.121415,0.2414299 0.440915,0.66499523 0.32866,0.52955731 -0.159315,-0.1922156 0.199492,0.24463953 0.359628,0.35043307 0.171534,0.11332337 0.239719,0.14076344 0.36433,0.20379808 0.124611,0.0630346 0.546844,0.18252814 0.774928,0.25759893 l 0.05082,-0.0014966 c 0.629613,-0.07154831 58.498914,-0.001225 88.714943,0.0016645 0.35332,-0.0317808 0.37912,-0.0409408 0.55917,-0.0894508 0.24143,-0.121415 0.665,-0.44091501 0.52956,-0.32866 -0.19222,0.159315 0.24464,-0.19949201 0.35043,-0.35962801 0.1133,-0.17153398 0.1408,-0.23971898 0.2038,-0.36433001 0.063,-0.124611 0.17438,-0.4687392 0.24948,-0.6968232 l 0.004,-0.048679 0.14382,-17.0710465 c 0.26437,0.0043 0.39953,0.02468 0.67265,0.03018 0.27312,0.0055 1.41308,0.237217 2.11922,0.355429 0.70615,0.118211 1.89534,0.459568 2.8426,0.688955 0.94727,0.229388 1.60272,0.722211 2.40368,1.082919 0.80096,0.360708 1.40502,0.653216 2.10713,0.979427 0.70212,0.326212 1.59291,0.912311 2.38897,1.368069 0.79606,0.455759 1.62423,1.067488 2.43594,1.600835 0.81172,0.533347 1.09461,0.921405 1.64152,1.381711 0.54691,0.460306 1.14609,1.15305 1.71873,1.7291781 0.57265,0.5761281 1.04613,1.1926591 1.56879,1.7885921 0.52267,0.5959327 1.2483,1.6857842 1.87206,2.5282794 0.62375,0.8424953 0.94077,1.549699 1.41075,2.3241516 0.46999,0.7744525 0.79167,1.4416305 1.1871,2.16204896 0.39544,0.72041843 0.5459,1.30441085 0.81845,1.95621944 0.27255,0.6518085 0.67505,1.5316068 1.01218,2.2970132 0.33713,0.7654065 0.6311,1.7221959 0.94626,2.5828972 0.31515,0.8607012 0.37197,1.4336246 0.55756,2.1500403 0.18559,0.7164155 0.36998,1.4905845 0.55457,2.2354797 0.18459,0.744896 0.26522,1.489889 0.39743,2.234437 0.13221,0.744547 0.24725,1.459004 0.37048,2.188109 0.12323,0.729105 0.22499,1.590782 0.33709,2.385776 0.11207,0.794994 0.13927,1.59083 0.20857,2.385848 0.0693,0.795018 0.0842,1.366758 0.12588,2.04974 0.0417,0.682982 0.091,1.738538 0.13604,2.607411 0.0451,0.868872 8e-4,1.676611 8e-4,2.514519 0,0.837909 -0.0443,1.357723 -0.0669,2.036189 -0.0225,0.678465 -0.12722,1.848223 -0.19122,2.771936 -0.064,0.923713 -0.078,1.431959 -0.11747,2.147543 -0.0394,0.715585 -0.13676,1.756971 -0.20546,2.63506 -0.0687,0.878088 -0.26898,1.913586 -0.40386,2.869983 -0.13489,0.956395 -0.23115,1.54256 -0.34712,2.313445 -0.11598,0.770882 -0.23708,1.684351 -0.35602,2.526128 -0.11894,0.84178 -0.40951,1.851803 -0.61467,2.777307 -0.20515,0.925505 -0.41584,1.835997 -0.62416,2.753598 -0.20831,0.917602 -0.43581,1.690351 -0.69393,2.53796 -0.25811,0.847606 -0.46129,1.488044 -0.65252,2.22884 -0.19124,0.740796 -0.47249,1.625737 -0.70914,2.438209 -0.23664,0.812472 -0.57194,1.658139 -0.85831,2.486814 -0.28638,0.828672 -0.50279,1.566002 -0.75459,2.348605 -0.25179,0.782606 -0.63374,1.803639 -0.95101,2.705061 -0.31727,0.901425 -0.66252,1.653193 -0.99417,2.479392 -0.33166,0.826198 -0.71658,1.838841 -1.07527,2.757865 -0.35869,0.919025 -0.98348,2.44973 -1.47562,3.674198 -0.49214,1.224468 -0.74296,1.911953 -1.11483,2.867535 -0.37187,0.95558 -0.78472,1.884024 -1.17748,2.825639 -0.39276,0.941615 -0.81702,2.057109 -1.22592,3.085269 -0.4089,1.028158 -0.82256,1.834333 -1.23423,2.751103 -0.41168,0.916771 -0.73674,1.727999 -1.1055,2.591602 -0.36877,0.863603 -0.95747,2.472219 -1.43661,3.707932 -0.47913,1.235715 -0.59767,1.859669 -0.8969,2.789105 -0.29923,0.929436 -0.59611,1.697424 -0.89457,2.545741 -0.29845,0.848315 -0.48362,1.336559 -0.72583,2.004444 -0.24222,0.667882 -0.56051,1.825735 -0.84117,2.738205 -0.28065,0.91247 -0.46482,1.66788 -0.69762,2.50142 -0.23281,0.83355 -0.50132,1.90778 -0.75238,2.86127 -0.25106,0.95349 -0.41541,1.4569 -0.62351,2.18495 -0.20811,0.72805 -0.48179,2.03132 -0.72308,3.04658 -0.24129,1.01526 -0.41052,1.98772 -0.61618,2.98119 -0.20565,0.99347 -0.36616,1.7176 -0.54964,2.576 -0.18348,0.8584 -0.35306,1.97681 -0.52999,2.96481 -0.17693,0.98801 -0.27735,2.01273 -0.41642,3.0187 -0.13906,1.00597 -0.26608,1.93261 -0.39953,2.89852 -0.13344,0.96591 -0.2535,2.50069 -0.38065,3.75064 -0.12713,1.24995 -0.16533,1.81216 -0.21953,2.72322 -0.0542,0.91106 -0.16816,2.2647 -0.23296,3.40514 -0.0648,1.14044 -0.11852,2.36107 -0.17812,3.54121 -0.0595,1.18014 -0.0366,2.02177 -0.0741,3.0365 -0.0375,1.01475 -0.0721,1.45591 -0.0565,2.18016 0.0155,0.72426 0.058,2.02531 0.0824,3.02274 0.0243,0.99743 0.18974,2.67413 0.20694,4.01081 0.0172,1.33667 0.17506,2.33579 0.26226,3.50329 0.0871,1.1675 0.15923,2.05349 0.23843,3.07983 0.0792,1.02635 0.19702,1.97905 0.29512,2.96819 0.0981,0.98913 0.23954,1.89449 0.35892,2.84134 0.11938,0.94684 0.31388,1.97669 0.47043,2.96465 0.15654,0.98795 0.3442,2.19389 0.51591,3.29044 0.1717,1.09655 0.38482,1.93913 0.57684,2.90829 0.19201,0.96917 0.55629,2.52027 0.83404,3.78001 0.27774,1.25974 0.71707,3.44915 1.07521,5.17333 0.35815,1.72417 0.59499,2.44112 0.89208,3.66128 0.29692,1.22016 0.19292,0.92237 0.28892,1.38316 0.096,0.46078 0.25028,1.54456 0.37503,2.31645 0.1247,0.77189 0.0222,0.84512 0.0329,1.26728 0.0107,0.42217 -0.0163,0.94087 -0.0431,1.40974 -0.0269,0.46888 -0.0537,1.05097 -0.1138,1.56843 -0.0601,0.51747 -0.11802,0.76523 -0.18752,1.14862 -0.0347,0.19169 -0.0978,0.39812 -0.15643,0.61968 -0.0587,0.22157 -0.21108,0.44696 -0.26518,0.6624 -0.24355,0.42739 -0.42723,0.77698 -0.66433,1.14624 -0.23654,0.37283 49.7615,26.21892 -0.83417,1.05061 -0.40331,-0.20062 -0.74716,0.75196 -1.17003,1.09314 -0.42287,0.34116 -0.8297,0.57428 -1.33506,0.82174 -0.45824,0.22437 -0.86573,0.37915 -1.28541,0.5008 -0.42088,0.122 -1.53837,0.2075 -2.30663,0.3281 -0.76826,0.12061 -1.50589,-0.0549 -2.19943,-0.0261 -0.69354,0.0289 -1.07271,-0.23389 -1.60816,-0.33299 -0.53545,-0.0991 -1.16743,-0.36335 -1.75154,-0.54542 -0.58411,-0.18208 -2.29188,-0.91375 -3.43735,-1.38193 -1.14548,-0.46818 -2.36785,-0.92178 -3.53007,-1.44236 -1.16223,-0.52059 -2.24525,-1.11782 -3.36407,-1.66494 -1.12198,-0.54866 -1.71102,-0.92493 -2.49578,-1.25926 0.15444,-7.59339 0.2742,-15.2546 0.39071,-22.85199 -0.0444,-0.23763 -0.0861,-0.52299 -0.12798,-0.80596 z"
       d="m 101.86275,170.96735 c -0.0691,-0.33814 -0.15694,-0.67229 -0.25776,-1.00236 -0.0795,-0.26033 -0.16735,-0.51882 -0.28283,-0.76531 -0.15655,-0.33415 -0.3627,-0.6434 -0.59285,-0.93183 -0.23989,-0.30062 -0.50634,-0.57965 -0.790582,-0.83874 -0.318742,-0.29053 -0.66191,-0.55743 -1.041414,-0.76232 -0.353865,-0.19105 -0.73563,-0.3262 -1.123672,-0.43177 -0.378832,-0.10306 -0.764523,-0.17848 -1.149292,-0.25651 -0.60947,-0.12359 -1.217571,-0.25393 -1.827704,-0.37421 -0.630038,-0.1242 -1.262162,-0.23765 -1.895343,-0.34468 -0.83771,-0.1416 -1.677458,-0.27198 -2.520516,-0.37716 -0.671666,-0.0838 -1.345216,-0.15156 -2.018723,-0.21898 -0.965112,-0.0966 -1.930394,-0.19251 -2.897497,-0.26658 -0.788413,-0.0604 -1.577858,-0.10623 -2.367262,-0.15186 -0.927657,-0.0536 -1.855378,-0.10692 -2.783781,-0.14552 -0.906395,-0.0377 -1.813318,-0.0613 -2.71983,-0.0961 -0.417282,-0.016 -0.834506,-0.0344 -1.251997,-0.0434 -0.405315,-0.009 -0.810801,-0.009 -1.216155,-0.002 -0.622683,0.0104 -1.244988,0.0367 -1.867569,0.0521 -0.644942,0.0159 -1.290173,0.02 -1.934948,0.0417 -0.778648,0.0262 -1.556221,0.0778 -2.334649,0.10989 -0.683978,0.0282 -1.368771,0.0412 -2.051606,0.0897 -0.615233,0.0437 -1.228047,0.11627 -1.84258,0.16893 -0.605174,0.0519 -1.211868,0.0844 -1.817134,0.13519 -0.544228,0.0456 -1.087098,0.106 -1.630362,0.16196 -0.686099,0.0707 -1.3729,0.13435 -2.0592,0.20305 -0.767055,0.0768 -1.533733,0.15986 -2.296231,0.27328 -0.556259,0.0827 -1.110074,0.18161 -1.667007,0.25969 -0.659778,0.0925 -1.324417,0.15592 -1.977314,0.28855 -0.24677,0.0501 -0.491422,0.11006 -0.736689,0.16709 -0.29929,0.0696 -0.599729,0.13493 -0.895782,0.21721 -0.260065,0.0723 -0.516425,0.15755 -0.777174,0.22732 -0.251732,0.0674 -0.509028,0.12078 -0.747342,0.22619 -0.269278,0.11911 -0.50617,0.30124 -0.723662,0.49972 -0.223343,0.20382 -0.428844,0.42624 -0.64442,0.63826 -0.228531,0.22476 -0.470688,0.4405 -0.649763,0.70635 -0.126781,0.18822 -0.218843,0.39711 -0.318137,0.60117 -0.14757,0.30327 -0.312269,0.59789 -0.463766,0.89922 -0.143615,0.28565 -0.275275,0.57715 -0.41576,0.86435 -0.17711,0.36208 -0.368238,0.7173 -0.572812,1.0646 -0.350893,-0.11227 -0.699284,-0.23235 -1.044827,-0.36014 -0.790639,-0.29239 -1.56573,-0.62485 -2.345392,-0.94537 -0.736048,-0.30259 -1.476439,-0.59463 -2.209792,-0.90369 -0.642829,-0.27091 -1.280083,-0.55482 -1.919584,-0.8335 -0.761645,-0.3319 -1.526497,-0.65638 -2.290167,-0.9836 -0.746162,-0.31972 -1.491223,-0.64206 -2.240571,-0.95423 -0.647116,-0.26959 -1.29737,-0.53157 -1.945971,-0.79756 -0.680798,-0.2792 -1.359799,-0.56283 -2.043079,-0.8359 -0.618937,-0.24736 -1.241405,-0.48605 -1.869403,-0.7094 -0.654896,-0.23292 -1.315706,-0.44911 -1.98086,-0.65088 -0.641841,-0.19469 -1.287926,-0.37601 -1.940366,-0.53153 -0.608776,-0.14512 -1.222685,-0.26769 -1.837273,-0.38579 -0.607374,-0.11672 -1.215572,-0.2291 -1.823108,-0.34497 -0.573622,-0.1094 -1.146903,-0.22196 -1.724716,-0.30647 -0.609559,-0.0892 -1.223249,-0.14697 -1.837069,-0.19928 -0.471764,-0.0402 -0.943801,-0.0772 -1.415993,-0.11199 -0.676645,-0.0499 -1.353859,-0.0954 -2.032118,-0.11273 -0.715749,-0.0183 -1.432102,-0.005 -2.147285,0.0285 -0.550641,0.0261 -1.100611,0.0645 -1.650786,0.099 -0.5197973,0.0326 -1.0398931,0.0618 -1.5587509,0.10696 -0.7181507,0.0625 -1.433238,0.15563 -2.1482504,0.24731 -0.5998195,0.0769 -1.1997673,0.15285 -1.799294,0.23201 -0.5924984,0.0782 -1.1849219,0.15968 -1.7718626,0.27227 -0.5396937,0.10352 -1.0740336,0.23324 -1.6060017,0.37107 -0.54856144,0.14213 -1.09492928,0.29295 -1.63704171,0.45798 -0.6392334,0.19459 -1.27241619,0.40889 -1.89962589,0.63931 -0.5417566,0.19903 -1.0790937,0.41009 -1.6113689,0.63324 -0.527028,0.22095 -1.0490755,0.45373 -1.5663074,0.69673 -0.8325322,0.39113 -1.652522,0.80868 -2.4624124,1.24476 -0.6477979,0.3488 -1.2891445,0.70946 -1.9281918,1.07405 -0.5693193,0.32481 -1.1369943,0.65284 -1.6925653,1.00064 -0.451978,0.28295 -0.895756,0.57886 -1.334026,0.88261 -0.457584,0.31713 -0.90922,0.64284 -1.354856,0.97656 -0.382217,0.28622 -0.759996,0.57832 -1.13985,0.86767 -0.406615,0.30974 -0.815695,0.6164 -1.213924,0.93685 -0.488276,0.39291 -0.959751,0.80614 -1.434152,1.21569 -0.372581,0.32165 -0.747117,0.64116 -1.111514,0.97205 -0.332244,0.3017 -0.655905,0.61272 -0.976355,0.92691 -0.429811,0.42142 -0.854047,0.84875 -1.262321,1.29107 -0.425862,0.46137 -0.834097,0.93877 -1.259951,1.40015 -0.424066,0.45944 -0.86556,0.90296 -1.276662,1.37404 -0.36425,0.41739 -0.703886,0.85557 -1.039635,1.29621 -0.302609,0.39715 -0.602264,0.79656 -0.898028,1.19883 -0.442411,0.60173 -0.876105,1.20986 -1.301498,1.82374 -0.426587,0.6156 -0.844871,1.23705 -1.247422,1.86863 -0.296816,0.46569 -0.585031,0.93681 -0.869785,1.40997 -0.284812,0.47326 -0.566277,0.94875 -0.827957,1.43518 -0.273374,0.50817 -0.524869,1.02773 -0.782492,1.54406 -0.249597,0.50024 -0.505094,0.99775 -0.73726,1.50632 -0.229025,0.50169 -0.43508,1.01356 -0.66072,1.51678 -0.200616,0.44741 -0.416647,0.88784 -0.613718,1.33682 -0.163503,0.37251 -0.31384,0.75065 -0.460681,1.13003 -0.156492,0.40432 -0.309084,0.81023 -0.449293,1.22048 -0.181821,0.53201 -0.342677,1.07089 -0.509695,1.60773 -0.198595,0.63834 -0.405954,1.27394 -0.601455,1.91323 -0.161938,0.52954 -0.315729,1.06158 -0.460716,1.59601 -0.180467,0.66521 -0.347329,1.33429 -0.488315,2.00898 -0.169223,0.80981 -0.301014,1.62692 -0.453912,2.43997 -0.101012,0.53714 -0.21124,1.07253 -0.327153,1.60665 -0.111157,0.51221 -0.227547,1.02328 -0.33611,1.53605 -0.143438,0.67749 -0.273193,1.35783 -0.393196,2.03986 -0.147199,0.83659 -0.279755,1.67588 -0.444395,2.50922 -0.136776,0.6923 -0.295615,1.38008 -0.463067,2.06561 -0.141356,0.5787 -0.288866,1.15587 -0.436963,1.73288 -0.14397,0.56093 -0.288587,1.12203 -0.462641,1.67436 -0.144357,0.4581 -0.309924,0.91215 -0.544362,1.33135 -0.147586,0.2639 -0.321713,0.51251 -0.512778,0.74686 -0.180828,0.22179 -0.378453,0.43238 -0.609536,0.60117 -0.257694,0.18823 -0.554778,0.32181 -0.866018,0.39228 -0.310446,0.0703 -0.633263,0.078 -0.949467,0.0415 -0.353638,-0.0408 -0.700267,-0.13655 -1.028182,-0.27511 -0.23999,-0.10141 -0.470554,-0.22592 -0.683532,-0.37598 -0.341078,-0.24032 -0.63356,-0.54348 -0.90063,-0.86405 -0.251847,-0.30229 -0.482816,-0.62139 -0.706561,-0.94504 -0.232706,-0.33661 -0.457899,-0.67854 -0.669103,-1.02904 -0.27477,-0.45599 -0.52567,-0.92618 -0.757439,-1.40546 -0.189172,-0.39119 -0.365596,-0.7884 -0.541192,-1.18587 -0.17869,-0.40447 -0.356569,-0.80932 -0.539683,-1.21181 -0.26402,-0.58032 -0.538933,-1.15577 -0.791433,-1.7412 -0.379208,-0.8792 -0.707404,-1.77992 -0.99958,-2.69175 -0.225158,-0.70268 -0.42897,-1.41199 -0.646237,-2.11715 -0.169295,-0.54946 -0.346763,-1.09641 -0.511585,-1.64723 -0.197901,-0.66137 -0.377546,-1.32826 -0.534633,-2.00049 -0.151885,-0.64997 -0.282673,-1.30491 -0.389638,-1.96376 -0.11673,-0.719 -0.205037,-1.44226 -0.306205,-2.16361 -0.09529,-0.67941 -0.202,-1.35726 -0.288123,-2.03789 -0.09304,-0.73532 -0.161999,-1.47346 -0.228227,-2.21168 -0.06563,-0.73161 -0.128612,-1.46349 -0.179433,-2.19628 -0.04699,-0.67755 -0.08358,-1.3558 -0.112934,-2.03435 -0.03078,-0.71167 -0.0536,-1.42376 -0.05887,-2.13608 -0.0044,-0.60147 0.0036,-1.2032 0.03569,-1.80383 0.03233,-0.60552 0.08903,-1.20964 0.114485,-1.81549 0.01882,-0.44806 0.02055,-0.89687 0.04928,-1.34441 0.03584,-0.55828 0.113582,-1.11288 0.17947,-1.66842 0.06314,-0.53238 0.115431,-1.06601 0.178398,-1.59841 0.06986,-0.59068 0.152847,-1.17974 0.23972,-1.76816 0.09395,-0.63633 0.192446,-1.27199 0.293791,-1.90719 0.09759,-0.61168 0.197827,-1.22295 0.30186,-1.83357 0.11274,-0.66173 0.22994,-1.32269 0.347239,-1.98362 0.104405,-0.58828 0.208942,-1.17681 0.341016,-1.75951 0.116268,-0.51296 0.253752,-1.02085 0.377804,-1.53199 0.170908,-0.7042 0.316271,-1.41436 0.48264,-2.11965 0.114161,-0.48396 0.238195,-0.96555 0.36687,-1.44586 0.134307,-0.50133 0.273679,-1.0013 0.417697,-1.49993 0.150201,-0.52004 0.305452,-1.0386 0.461524,-1.5569 0.175408,-0.58252 0.351863,-1.16474 0.521257,-1.74903 0.180452,-0.62244 0.352895,-1.24724 0.542216,-1.86704 0.180328,-0.59036 0.375903,-1.17596 0.577106,-1.75953 0.153404,-0.44494 0.310093,-0.88874 0.462545,-1.334 0.239364,-0.69911 0.468257,-1.40175 0.703228,-2.10234 0.245057,-0.73066 0.496732,-1.45912 0.75719,-2.18444 0.207381,-0.57751 0.420326,-1.15301 0.63805,-1.7267 0.19701,-0.51911 0.397947,-1.03676 0.608234,-1.55063 0.25884,-0.63252 0.531797,-1.25919 0.790545,-1.89174 0.300044,-0.73351 0.580884,-1.47469 0.868311,-2.21324 0.471139,-1.2106 0.960098,-2.4144 1.479506,-3.60509 0.306202,-0.70193 0.622958,-1.39925 0.925886,-2.1026 0.281119,-0.65272 0.550276,-1.31051 0.82698,-1.96511 0.289499,-0.68487 0.587257,-1.36624 0.891532,-2.04467 0.383807,-0.85577 0.778005,-1.70691 1.151639,-2.56717 0.334177,-0.76941 0.651804,-1.54588 0.97393,-2.32041 0.313301,-0.75331 0.630923,-1.50496 0.926166,-2.26553 0.272677,-0.70244 0.526148,-1.4122 0.79667,-2.11547 0.274443,-0.71346 0.566411,-1.42019 0.831624,-2.13714 0.200538,-0.54211 0.385715,-1.08989 0.593315,-1.62934 0.192081,-0.49912 0.403326,-0.99102 0.579351,-1.49603 0.192567,-0.55247 0.342326,-1.11871 0.502322,-1.68147 0.203254,-0.71492 0.423256,-1.42494 0.640577,-2.13571 0.182933,-0.5983 0.363988,-1.1972 0.536876,-1.79848 0.189196,-0.658 0.368594,-1.31878 0.541486,-1.98125 0.164608,-0.63073 0.323321,-1.26298 0.478155,-1.89618 0.140325,-0.57386 0.277475,-1.14854 0.403849,-1.72564 0.136546,-0.62355 0.260495,-1.24984 0.373114,-1.87815 0.103623,-0.57812 0.197652,-1.15794 0.285913,-1.73861 0.08615,-0.56679 0.166838,-1.13458 0.271488,-1.69825 0.09439,-0.50843 0.208239,-1.01325 0.2927,-1.52343 0.113438,-0.68521 0.173529,-1.37793 0.242747,-2.06901 0.07254,-0.72427 0.155215,-1.44757 0.217697,-2.17278 0.05607,-0.650793 0.09586,-1.302861 0.139314,-1.954618 0.0455,-0.682469 0.09503,-1.36472 0.129455,-2.047838 0.03469,-0.688555 0.05403,-1.377782 0.07243,-2.066965 0.01642,-0.61502 0.0321,-1.230296 0.02096,-1.845434 -0.0094,-0.520819 -0.03809,-1.04111 -0.05164,-1.561838 -0.0119,-0.457235 -0.01215,-0.914753 -0.02819,-1.371862 -0.01926,-0.549121 -0.06129,-1.097201 -0.109553,-1.644536 -0.03542,-0.401603 -0.0742,-0.802902 -0.110702,-1.204408 -0.05774,-0.635054 -0.109835,-1.271084 -0.202043,-1.902055 -0.09304,-0.636629 -0.226672,-1.266506 -0.343906,-1.899126 -0.12603,-0.680087 -0.233132,-1.363513 -0.342543,-2.04647 -0.09363,-0.584469 -0.189027,-1.168965 -0.313557,-1.747639 -0.12141,-0.564174 -0.270355,-1.122064 -0.397502,-1.684973 -0.130608,-0.578232 -0.238132,-1.161377 -0.352521,-1.743035 -0.124023,-0.63065 -0.256163,-1.259768 -0.403431,-1.885399 -0.111945,-0.475568 -0.232636,-0.949132 -0.36663,-1.418964 -0.21256,-0.745312 -0.458415,-1.480627 -0.691433,-2.219798 -0.219079,-0.694954 -0.426838,-1.393413 -0.638839,-2.090558 -0.209122,-0.687678 -0.422383,-1.374121 -0.644647,-2.057664 -0.247268,-0.76044 -0.505681,-1.517291 -0.77878,-2.268842 -0.282217,-0.776642 -0.580069,-1.547491 -0.872514,-2.32034 -0.268183,-0.708731 -0.531951,-1.419473 -0.829516,-2.116378 -0.245737,-0.575523 -0.514325,-1.141134 -0.756224,-1.718281 -0.259978,-0.620281 -0.48879,-1.25307 -0.731404,-1.880346 -0.263219,-0.680549 -0.542707,-1.354666 -0.819875,-2.029654 -0.334152,-0.813763 -0.664997,-1.628955 -1.012798,-2.436979 -0.423657,-0.984255 -0.872332,-1.957544 -1.301978,-2.9392 -0.343166,-0.784066 -0.674234,-1.573561 -1.034169,-2.350072 -0.358593,-0.773615 -0.745564,-1.533747 -1.110715,-2.304288 -0.456179,-0.962629 -0.878086,-1.941039 -1.311426,-2.914163 -0.370694,-0.832444 -0.749799,-1.661117 -1.131663,-2.488496 -0.374698,-0.811853 -0.752061,-1.622482 -1.134417,-2.430756 -0.574729,-1.214938 -1.16073,-2.424544 -1.729851,-3.642119 -0.424368,-0.90789 -0.839328,-1.820163 -1.247187,-2.735588 -0.52177,-1.171094 -1.031927,-2.34736 -1.559193,-3.515989 -0.452622,-1.003188 -0.917822,-2.000684 -1.366541,-3.005624 -0.332616,-0.74492 -0.656144,-1.493857 -0.983226,-2.241224 -0.313288,-0.715848 -0.629865,-1.430322 -0.930968,-2.15138 -0.375659,-0.899599 -0.727086,-1.809102 -1.093957,-2.712321 -0.353491,-0.870278 -0.7213,-1.734672 -1.093425,-2.597147 -0.37906,-0.878548 -0.76263,-1.755183 -1.132708,-2.637553 -0.507986,-1.2111815 -0.990437,-2.4329011 -1.467715,-3.6565087 -0.372653,-0.9553791 -0.742184,-1.911984 -1.105649,-2.8708963 -0.247069,-0.6518305 -0.491334,-1.3047199 -0.736544,-1.9572519 -0.262085,-0.6974381 -0.525254,-1.39447428 -0.792324,-2.09001898 -0.379638,-0.98871232 -0.767177,-1.97446012 -1.132808,-2.96843762 -0.283684,-0.771203 -0.554125,-1.5472106 -0.834642,-2.3195711 -0.414141,-1.1402731 -0.850277,-2.2726854 -1.243459,-3.4203542 -0.323422,-0.9440459 -0.617614,-1.8979342 -0.943729,-2.8410532 -0.213944,-0.618721 -0.441572,-1.232647 -0.654807,-1.851613 -0.296301,-0.860085 -0.564673,-1.729495 -0.831522,-2.599169 -0.274883,-0.895858 -0.548222,-1.792221 -0.833297,-2.684888 -0.259356,-0.812133 -0.528556,-1.621651 -0.749157,-2.445156 -0.104348,-0.389533 -0.197743,-0.781906 -0.289785,-1.174529 -0.138347,-0.590145 -0.273687,-1.181039 -0.421487,-1.768888 -0.238831,-0.949907 -0.510067,-1.891338 -0.75973,-2.838456 -0.228961,-0.868584 -0.439752,-1.741853 -0.645728,-2.616173 -0.256966,-1.090762 -0.50647,-2.183285 -0.747623,-3.277651 -0.149745,-0.679553 -0.296292,-1.359918 -0.424492,-2.043863 -0.163597,-0.872787 -0.29722,-1.750862 -0.440685,-2.627183 -0.109663,-0.669851 -0.225099,-1.338808 -0.324392,-2.010275 -0.113577,-0.768061 -0.206022,-1.539442 -0.265692,-2.313559 -0.04481,-0.581362 -0.07112,-1.163991 -0.110683,-1.745734 -0.03384,-0.497552 -0.07737,-0.994569 -0.09717,-1.492877 -0.02213,-0.556891 -0.01456,-1.114751 0.01371,-1.671363 0.04008,-0.789092 0.121757,-1.575656 0.225544,-2.358919 0.102506,-0.7736 0.226867,-1.545589 0.419639,-2.301766 0.153191,-0.600918 0.349591,-1.191312 0.598075,-1.75949 0.125616,-0.287229 0.264499,-0.568704 0.417632,-0.842256 0.184098,-0.328868 0.38852,-0.645845 0.591814,-0.963205 0.201606,-0.314725 0.402606,-0.630579 0.631442,-0.926097 0.287246,-0.370949 0.616512,-0.707434 0.957823,-1.029335 0.320967,-0.302714 0.653317,-0.593364 0.996249,-0.870948 0.320375,-0.259325 0.650111,-0.507335 0.992267,-0.737158 0.396332,-0.266213 0.80887,-0.507718 1.229214,-0.734124 0.4203,-0.226383 0.848675,-0.437835 1.284634,-0.632364 0.453681,-0.202436 0.915457,-0.386497 1.382247,-0.556538 0.478031,-0.174136 0.962433,-0.333892 1.45927,-0.443392 0.67479,-0.14872 1.367211,-0.203526 2.058019,-0.219149 0.679641,-0.01537 1.361646,0.007 2.034315,0.105275 0.712625,0.104148 1.410236,0.292826 2.098852,0.503751 0.763203,0.233771 1.51815,0.495508 2.257206,0.797044 1.014258,0.41382 1.998533,0.902787 2.93276,1.474788 0.975597,0.597331 1.893593,1.283088 2.812016,1.965065 0.727067,0.539885 1.455394,1.078075 2.185339,1.614062 0.680093,0.499381 1.361785,0.996998 2.023388,1.520629 0.579746,0.458845 1.143621,0.937314 1.709261,1.413439 0.751457,0.632536 1.506253,1.261118 2.266146,1.883494 0.93747,0.767817 1.882808,1.526281 2.803945,2.313618 1.017333,0.86956 2.004507,1.773792 3.015853,2.650307 1.081661,0.937455 2.190626,1.842906 3.279355,2.772143 1.342778,1.146069 2.654928,2.328447 4.024341,3.442554 0.876463,0.71306 1.77576,1.397641 2.653886,2.108653 1.220127,0.987927 2.398742,2.026365 3.622108,3.010278 1.040035,0.836466 2.111596,1.632868 3.187797,2.42226 0.857699,0.629121 1.718915,1.2542 2.606935,1.839743 0.930753,0.61372 1.889837,1.18327 2.854267,1.742581 0.9089726,0.527149 1.8233602,1.045596 2.7566349,1.528417 1.2475868,0.645427 2.5276221,1.226503 3.8209101,1.77464 1.6842119,0.713823 3.3940277,1.372988 5.1480969,1.891982 1.7268783,0.510949 3.4911162,0.884459 5.2571039,1.237255 1.2362793,0.246975 2.4748635,0.484135 3.7207942,0.676592 0.927591,0.143283 1.858808,0.26172 2.789475,0.383434 0.928801,0.12147 1.857384,0.246244 2.789526,0.338641 0.762471,0.07558 1.526929,0.129454 2.289937,0.199405 1.153057,0.10571 2.302844,0.248136 3.457849,0.32986 0.865545,0.06124 1.733124,0.08833 2.599459,0.137133 0.592681,0.03339 1.184753,0.07693 1.776413,0.12514 0.5194,0.04232 1.038508,0.08823 1.557274,0.137723 l 0.18502,17.1215526 0.08992,0.5634406 c 0.08779,0.1888454 0.198401,0.36706909 0.32866,0.52955731 0.105013,0.13099661 0.223393,0.25231124 0.359628,0.35043307 0.113101,0.08146 0.237408,0.146191 0.36433,0.20379808 0.248328,0.11271082 0.508543,0.19921051 0.774928,0.25759893 l 0.05082,-0.0014966 88.714943,0.0016645 0.55917,-0.0894508 c 0.18881,-0.08785276 0.36703,-0.19845804 0.52956,-0.32866 0.13104,-0.10497149 0.25244,-0.22329465 0.35043,-0.35962801 0.0814,-0.11317288 0.14579,-0.23760352 0.2038,-0.36433001 0.10282,-0.2245973 0.18638,-0.4580044 0.24948,-0.6968232 l 0.004,-0.048679 0.14382,-17.0710465 c 0.2245,9.55e-4 0.44896,0.01103 0.67265,0.03018 0.71408,0.06114 1.41654,0.214377 2.11922,0.355429 0.9568,0.192062 1.92263,0.363374 2.8426,0.688955 0.82888,0.293342 1.6085,0.707711 2.40368,1.082919 0.70052,0.330545 1.41506,0.63153 2.10713,0.979427 0.82014,0.412277 1.60595,0.889032 2.38897,1.368069 0.82914,0.50725 1.65763,1.018592 2.43594,1.600835 0.57296,0.428626 1.11731,0.894664 1.64152,1.381711 0.5955,0.553288 1.16526,1.133842 1.71873,1.7291781 0.54005,0.5809026 1.06482,1.1761262 1.56879,1.7885921 0.66663,0.8101434 1.29702,1.6507536 1.87206,2.5282794 0.49678,0.7580971 0.95161,1.5426861 1.41075,2.3241516 0.41665,0.7091445 0.8378,1.4174187 1.1871,2.16204896 0.30022,0.6400107 0.54597,1.30391246 0.81845,1.95621944 0.32251,0.7720812 0.6825,1.5279681 1.01218,2.2970132 0.36149,0.8432432 0.68671,1.7029137 0.94626,2.5828972 0.20947,0.7101995 0.37579,1.4322516 0.55756,2.1500403 0.18849,0.74431 0.39376,1.4847043 0.55457,2.2354797 0.15846,0.7398 0.27342,1.488089 0.39743,2.234437 0.12125,0.729747 0.25124,1.45803 0.37048,2.188109 0.12947,0.792734 0.24628,1.587689 0.33709,2.385776 0.0903,0.793268 0.1548,1.589274 0.20857,2.385848 0.0461,0.682982 0.0843,1.366469 0.12588,2.04974 0.0529,0.868754 0.11128,1.737401 0.13604,2.607411 0.0238,0.837913 0.0164,1.676413 8e-4,2.514519 -0.0127,0.679012 -0.0308,1.358019 -0.0669,2.036189 -0.0492,0.924879 -0.13191,1.847648 -0.19122,2.771936 -0.0459,0.71545 -0.0778,1.431719 -0.11747,2.147543 -0.0487,0.87978 -0.1092,1.759205 -0.20546,2.63506 -0.10555,0.960394 -0.25403,1.915493 -0.40386,2.869983 -0.12092,0.770364 -0.24277,1.540662 -0.34712,2.313445 -0.11381,0.842797 -0.20686,1.688864 -0.35602,2.526128 -0.16632,0.933596 -0.40186,1.853199 -0.61467,2.777307 -0.21121,0.917162 -0.4002,1.839466 -0.62416,2.753598 -0.20872,0.851917 -0.44768,1.696125 -0.69393,2.53796 -0.21734,0.742998 -0.44042,1.48433 -0.65252,2.22884 -0.23192,0.814069 -0.45079,1.632139 -0.70914,2.438209 -0.26766,0.835104 -0.57732,1.656102 -0.85831,2.486814 -0.26348,0.77894 -0.50168,1.566169 -0.75459,2.348605 -0.29401,0.90957 -0.60796,1.81283 -0.95101,2.705061 -0.31955,0.831125 -0.66421,1.652343 -0.99417,2.479392 -0.36563,0.916452 -0.71318,1.840012 -1.07527,2.757865 -0.48434,1.227739 -0.99465,2.445133 -1.47562,3.674198 -0.37373,0.955032 -0.72972,1.917036 -1.11483,2.867535 -0.38318,0.94572 -0.79501,1.879631 -1.17748,2.825639 -0.4148,1.025989 -0.79496,2.065964 -1.22592,3.085269 -0.39142,0.925776 -0.82428,1.833382 -1.23423,2.751103 -0.38307,0.85754 -0.74611,1.723871 -1.1055,2.591602 -0.50729,1.224836 -1.0077,2.4535 -1.43661,3.707932 -0.31596,0.924086 -0.59275,1.861064 -0.8969,2.789105 -0.28013,0.854764 -0.58342,1.701772 -0.89457,2.545741 -0.24581,0.666756 -0.4966,1.331806 -0.72583,2.004444 -0.30804,0.903881 -0.57685,1.820585 -0.84117,2.738205 -0.23961,0.83182 -0.47563,1.66472 -0.69762,2.50142 -0.2529,0.95321 -0.48757,1.9113 -0.75238,2.86127 -0.20337,0.72958 -0.42447,1.45417 -0.62351,2.18495 -0.27433,1.00719 -0.50657,2.0254 -0.72308,3.04658 -0.21047,0.99267 -0.40614,1.98843 -0.61618,2.98119 -0.18174,0.85899 -0.37422,1.7157 -0.54964,2.576 -0.2006,0.9838 -0.37886,1.97221 -0.52999,2.96481 -0.15289,1.0042 -0.27798,2.0124 -0.41642,3.0187 -0.13293,0.96622 -0.27818,1.93078 -0.39953,2.89852 -0.15637,1.24695 -0.27298,2.49854 -0.38065,3.75064 -0.078,0.90734 -0.15136,1.81509 -0.21953,2.72322 -0.0852,1.13452 -0.16225,2.26963 -0.23296,3.40514 -0.0735,1.17966 -0.14003,2.35988 -0.17812,3.54121 -0.0326,1.01195 -0.0444,2.02446 -0.0741,3.0365 -0.0214,0.72667 -0.052,1.45319 -0.0565,2.18016 -0.006,1.00805 0.0378,2.01566 0.0824,3.02274 0.0593,1.33743 0.11965,2.67492 0.20694,4.01081 0.0764,1.16855 0.17328,2.33564 0.26226,3.50329 0.0782,1.02671 0.15033,2.05392 0.23843,3.07983 0.0851,0.99066 0.18505,1.98 0.29512,2.96819 0.10569,0.94882 0.22069,1.89671 0.35892,2.84134 0.14487,0.99005 0.3152,1.97617 0.47043,2.96465 0.17224,1.09679 0.3259,2.19659 0.51591,3.29044 0.16916,0.97381 0.36704,1.94243 0.57684,2.90829 0.27389,1.26091 0.56815,2.51738 0.83404,3.78001 0.36296,1.72357 0.67303,3.45849 1.07521,5.17333 0.28683,1.22298 0.6203,2.43487 0.89208,3.66128 0.10191,0.45986 0.1951,0.92159 0.28892,1.38316 0.15591,0.76704 0.31392,1.53611 0.37503,2.31645 0.033,0.42142 0.0376,0.84459 0.0329,1.26728 -0.005,0.47013 -0.0219,0.94006 -0.0431,1.40974 -0.0236,0.52377 -0.0528,1.04769 -0.1138,1.56843 -0.0451,0.38544 -0.10768,0.76885 -0.18752,1.14862 -0.0438,0.20856 -0.093,0.41623 -0.15643,0.61968 -0.0709,0.22728 -0.15966,0.44898 -0.26518,0.6624 -0.19221,0.39806 -0.41449,0.78158 -0.66433,1.14624 -0.25293,0.36917 -0.53392,0.71878 -0.83417,1.05061 -0.35861,0.39632 -0.74567,0.76819 -1.17003,1.09314 -0.41556,0.31821 -0.86559,0.59036 -1.33506,0.82174 -0.41305,0.20357 -0.84213,0.37608 -1.28541,0.5008 -0.74909,0.21077 -1.52976,0.28297 -2.30663,0.3281 -0.73295,0.0426 -1.47052,0.0618 -2.19943,-0.0261 -0.54396,-0.0656 -1.07916,-0.19032 -1.60816,-0.33299 -0.59055,-0.15927 -1.175,-0.34117 -1.75154,-0.54542 -1.16418,-0.41242 -2.29392,-0.91507 -3.43735,-1.38193 -1.17689,-0.48052 -2.36952,-0.92361 -3.53007,-1.44236 -1.14242,-0.51064 -2.25092,-1.09331 -3.36407,-1.66494 -0.82892,-0.42567 -1.66088,-0.84544 -2.49578,-1.25926 l 0.39071,-22.85199 c -0.0308,-0.27036 -0.0735,-0.53936 -0.12798,-0.80596 z"
       sodipodi:nodetypes="ssssssssssscsssssssscccssssssscsssssssscssssssssssssscsscsccscsssssssssssssssssssssssssssssssssssssssssssssscssssssssssssssssssssssssssssssssssssssssssssssssssssssssssssssssssssssscscsssssssssssssssssssssssssssssssssssssssssssssssssssssssssssssssssssssssssssssssssssssssssssssssssssscsscccsssccccssscccssssssssssssssssssssssccscscsssssssssssssssssssssssssssssssssssssscccscsssssssscscscscccccsssscsssssccs"
       inkscape:label="contour" /></g></svg>
